/* XPM */
static char * collectible_xpm[] = {
"50 50 227 2",
"  	c #000000",
". 	c #020202",
"+ 	c #070707",
"@ 	c #0B0B0B",
"# 	c #050505",
"$ 	c #181818",
"% 	c #2D2D2D",
"& 	c #3E3E3E",
"* 	c #494949",
"= 	c #040404",
"- 	c #191919",
"; 	c #373737",
"> 	c #565656",
", 	c #747474",
"' 	c #898989",
") 	c #959595",
"! 	c #121212",
"~ 	c #313131",
"{ 	c #555555",
"] 	c #7A7A7A",
"^ 	c #9D9D9D",
"/ 	c #BBBBBB",
"( 	c #CFCFCF",
"_ 	c #DADADA",
": 	c #0C0C0C",
"< 	c #282828",
"[ 	c #4A4A4A",
"} 	c #717171",
"| 	c #989898",
"1 	c #BCBCBC",
"2 	c #D9D9D9",
"3 	c #EDEDED",
"4 	c #F9F9F9",
"5 	c #FCFCFC",
"6 	c #202020",
"7 	c #424242",
"8 	c #676767",
"9 	c #8D8D8D",
"0 	c #B2B2B2",
"a 	c #D2D2D2",
"b 	c #EAEAEA",
"c 	c #FFFFFF",
"d 	c #030303",
"e 	c #1A1A1A",
"f 	c #393939",
"g 	c #5D5D5D",
"h 	c #848484",
"i 	c #A9A9A9",
"j 	c #CACACA",
"k 	c #E4E4E4",
"l 	c #F4F4F4",
"m 	c #FDFDFD",
"n 	c #010101",
"o 	c #111111",
"p 	c #2F2F2F",
"q 	c #545454",
"r 	c #A0A0A0",
"s 	c #C2C2C2",
"t 	c #DEDEDE",
"u 	c #F1F1F1",
"v 	c #FBFBFB",
"w 	c #F6F6F6",
"x 	c #DFDFDF",
"y 	c #D8D8D8",
"z 	c #080808",
"A 	c #262626",
"B 	c #484848",
"C 	c #6F6F6F",
"D 	c #969696",
"E 	c #BABABA",
"F 	c #ECECEC",
"G 	c #FAFAFA",
"H 	c #FEFEFE",
"I 	c #F5F5F5",
"J 	c #E7E7E7",
"K 	c #D0D0D0",
"L 	c #B8B8B8",
"M 	c #A1A1A1",
"N 	c #151515",
"O 	c #626262",
"P 	c #8C8C8C",
"Q 	c #B1B1B1",
"R 	c #E8E8E8",
"S 	c #F7F7F7",
"T 	c #F8F8F8",
"U 	c #D4D4D4",
"V 	c #B6B6B6",
"W 	c #949494",
"X 	c #737373",
"Y 	c #585858",
"Z 	c #1D1D1D",
"` 	c #4B4B4B",
" .	c #787878",
"..	c #A4A4A4",
"+.	c #C8C8C8",
"@.	c #E3E3E3",
"#.	c #EEEEEE",
"$.	c #DBDBDB",
"%.	c #BEBEBE",
"&.	c #9A9A9A",
"*.	c #757575",
"=.	c #4F4F4F",
"-.	c #0E0E0E",
";.	c #1B1B1B",
">.	c #4D4D4D",
",.	c #858585",
"'.	c #F3F3F3",
").	c #E0E0E0",
"!.	c #C6C6C6",
"~.	c #7E7E7E",
"{.	c #333333",
"].	c #171717",
"^.	c #7D7D7D",
"/.	c #CECECE",
"(.	c #ADADAD",
"_.	c #888888",
":.	c #3C3C3C",
"<.	c #1F1F1F",
"[.	c #5F5F5F",
"}.	c #A5A5A5",
"|.	c #DDDDDD",
"1.	c #6C6C6C",
"2.	c #464646",
"3.	c #232323",
"4.	c #090909",
"5.	c #797979",
"6.	c #C0C0C0",
"7.	c #808080",
"8.	c #535353",
"9.	c #0F0F0F",
"0.	c #060606",
"a.	c #3F3F3F",
"b.	c #B4B4B4",
"c.	c #0A0A0A",
"d.	c #454545",
"e.	c #919191",
"f.	c #222222",
"g.	c #131313",
"h.	c #E6E6E6",
"i.	c #2A2A2A",
"j.	c #5E5E5E",
"k.	c #1C1C1C",
"l.	c #D3D3D3",
"m.	c #DCDCDC",
"n.	c #A2A2A2",
"o.	c #5A5A5A",
"p.	c #404040",
"q.	c #727272",
"r.	c #D6D6D6",
"s.	c #B9B9B9",
"t.	c #343434",
"u.	c #979797",
"v.	c #272727",
"w.	c #474747",
"x.	c #F0F0F0",
"y.	c #4C4C4C",
"z.	c #242424",
"A.	c #161616",
"B.	c #1E1E1E",
"C.	c #101010",
"D.	c #353535",
"E.	c #4E4E4E",
"F.	c #696969",
"G.	c #2E2E2E",
"H.	c #212121",
"I.	c #292929",
"J.	c #777777",
"K.	c #D7D7D7",
"L.	c #B0B0B0",
"M.	c #6A6A6A",
"N.	c #F2F2F2",
"O.	c #D5D5D5",
"P.	c #999999",
"Q.	c #ACACAC",
"R.	c #9C9C9C",
"S.	c #646464",
"T.	c #434343",
"U.	c #252525",
"V.	c #383838",
"W.	c #3A3A3A",
"X.	c #595959",
"Y.	c #6D6D6D",
"Z.	c #525252",
"`.	c #AFAFAF",
" +	c #5B5B5B",
".+	c #0D0D0D",
"++	c #929292",
"@+	c #C4C4C4",
"#+	c #303030",
"$+	c #8A8A8A",
"%+	c #7B7B7B",
"&+	c #A7A7A7",
"*+	c #767676",
"=+	c #BFBFBF",
"-+	c #7C7C7C",
";+	c #636363",
">+	c #AAAAAA",
",+	c #E1E1E1",
"'+	c #616161",
")+	c #CCCCCC",
"!+	c #E9E9E9",
"~+	c #E2E2E2",
"{+	c #C7C7C7",
"]+	c #A3A3A3",
"^+	c #878787",
"/+	c #444444",
"(+	c #BDBDBD",
"_+	c #EFEFEF",
":+	c #8E8E8E",
"<+	c #838383",
"[+	c #AEAEAE",
"}+	c #909090",
"|+	c #E5E5E5",
"1+	c #ABABAB",
"2+	c #686868",
"3+	c #3D3D3D",
"4+	c #CBCBCB",
"5+	c #CDCDCD",
"6+	c #8F8F8F",
"7+	c #B3B3B3",
"8+	c #141414",
"9+	c #323232",
"0+	c #C5C5C5",
"a+	c #3B3B3B",
"b+	c #606060",
"c+	c #868686",
"d+	c #414141",
"                                                                                                    ",
"                                                                                                    ",
"                                            . + @ @ + .                                             ",
"                                        # $ % & * * & % $ #                                         ",
"                                    = - ; > , ' ) ) ' , > ; - =                                     ",
"                                . ! ~ { ] ^ / ( _ _ ( / ^ ] { ~ ! .                                 ",
"                              : < [ } | 1 2 3 4 5 5 4 3 2 1 | } [ < :                               ",
"                          + 6 7 8 9 0 a b 4 c c c c c c 4 b a 0 9 8 7 6 +                           ",
"                      d e f g h i j k l m c c m 5 5 m c c m l k j i h g f e d                       ",
"                  n o p q ] r s t u v c 5 w b x y y x b w 5 c v u t s r ] q p o n                   ",
"                z A B C D E y F G H H I J K L M ) ) M L K J I H H G F y E D C B A z                 ",
"            n N f O P Q K R S H H T b U V W X Y * * Y X W V U b T H H S R K Q P O f N n             ",
"          . Z `  ...+.@.l m c v #.$.%.&.*.=.~ e -.-.e ~ =.*.&.%.$.#.v c m l @.+... .` Z .           ",
"          ;.>.,.V _ u 5 c m '.).!...~.Y {.]..         . ].{.Y ~...!.).'.m c 5 u _ V ,.>.;.          ",
"        @ & ^.L @.4 c c 4 R /.(._.O :.Z =                 = Z :.O _.(./.R 4 c c 4 @.L ^.& @         ",
"        <.[.}.|.G c c S t 1 ) 1.2.3.4.                        4.3.2.1.) 1 t S c c G |.}.[.<.        ",
"      . ~ 5.6.u c c 4 $.Q 7.8.% 9.n                             n 9.% 8.7.Q $.4 c c u 6.5.~ .       ",
"      0.a.' ( T c m k b.] 2.Z d                                     d Z 2.] b.k m c T ( ' a.0.      ",
"      c.d.e.U 4 c '.j P ` - n                 = e f.g..               n - ` P j '.c 4 U e.d.c.      ",
"      @ * W U S 5 h.0 1.i..                 . A =.j.2.k.                . i.1.0 h.5 S U W * @       ",
"      : [ ) l.l S m.n.o.-                   @ p._.L q.{.d                 - o.n.m.S l l.) [ :       ",
"      : [ ) l.'.'.r.&.=.o                   c.p._.s.q.t.d                 o =.&.r.'.'.l.) [ :       ",
"      : [ W a u u l.u.` 9.                  . v.=.g w.k.      n d = d     9.` u.l.u u a W [ :       ",
"      : [ W a x.x.a ) y.:                     # ;.z.A..     # ! B.f.k.C.d : y.) a x.x.a W [ :       ",
"      : [ W a x.x.a ) y.:                                 # Z t.7 d.a.p ].9.y.) a x.x.a W [ :       ",
"      : [ W a x.x.a ) y.:                               n N D.E.O F.j.* G.].` ) a x.x.a W [ :       ",
"      : [ W a x.x.a ) y.:                               # 3.2.8 D (.' j.& H.y.) a x.x.a W [ :       ",
"      : [ W a x.u a D ` 9.                              0.I.E.J.6.K.L.M.2.< y.D a u x.a W [ :       ",
"      : [ ) a N.'.O.P.=.C.          = ! #               # A ` C Q.!.R.S.T.U.=.P.O.'.N.a ) [ :       ",
"      : [ ) l.'.w _ r Y ].        = V.S.W.=             . e :.X.X ~.Y.Z.D.f.Y r _ w '.l.) [ :       ",
"      @ * W l.w v k `.F.v.n       c.Y `. +.+              4.U.& E.Z.` f 6 I.F.`.k v w l.W * @       ",
"      c.d.++l.T c x.@+,.d.g.      . G.Z.#+.                 @ k.I.% v.- $ d.,.@+x.c T l.++d.c.      ",
"      + p.$+( T c 5 x (.q.& N n     . z .                     . z @ + A.& q.(.x 5 H S ( $+p.+       ",
"      d t.%+s N.c c w O.&+*+[ U.4.                                4.U.[ *+&+O.w 4 b x =+-+t.d       ",
"        f.;+>+,+5 c c '.K.0 $+'+:.;.=                         = ;.:.'+$+0 K.'.H b 2 )+..S.f.        ",
"        .+T.h =+!+v c H w ~+{+]+^.> {.N n                 n N {.> ^.]+{+~+w H H R K / ^+/+.+        ",
"        n 6 { 9 (+,+I m c v _+_ 1 P.X E.i.-.n         n -.i.E.X P.1 _ _+v c m I m.b.:+ +H.n         ",
"          d U.8.<+[+K !+S H H T !+l.b.}+M.d.A o 0.0.o A d.M.}+b.l.!+T H H S !+K [+<+8.U.d           ",
"            d B./+Y.D E y 3 G H m I |+)+1+' 2+` 3+3+` 2+' 1+)+|+I m H G 3 y E D Y./+B.d             ",
"              n 9.p 8.] M @+x u 5 c 5 N.).+.(.) ^+^+) (.+.).N.5 c 5 u x @+M ] 8.p 9.n               ",
"                  d e f [.,.>+4+k l m c v N.@.r.5+5+r.@.N.v c m l k 4+>+,.[.f e d                   ",
"                      + H.T.F.6+7+a b T H c H v 4 4 v H c H T b a 7+6+F.T.H.+                       ",
"                          -.I.y.q.| 1 2 _+5 c c c c c c 5 _+2 1 | q.y.I.-.                          ",
"                            n 8+9+{ ^.n.0+).'.5 H H 5 '.).0+n.^.{ 9+8+n                             ",
"                                = e a+b+c+i !.2 k k 2 !.i c+b+a+e =                                 ",
"                                    z 3.d+;+7.| ....| 7.;+d+3.z                                     ",
"                                      n @ 3.W.y.> > y.W.3.@ n                                       ",
"                                            # -.A.A.-.#                                             ",
"                                                                                                    ",
"                                                                                                    "};
