/* XPM */
static char * door_xpm[] = {
"50 50 208 2",
"  	c #000000",
". 	c #020202",
"+ 	c #030303",
"@ 	c #050505",
"# 	c #070707",
"$ 	c #040404",
"% 	c #010101",
"& 	c #101010",
"* 	c #191919",
"= 	c #202020",
"- 	c #262626",
"; 	c #292929",
"> 	c #2D2D2D",
", 	c #272727",
"' 	c #222222",
") 	c #1B1B1B",
"! 	c #121212",
"~ 	c #090909",
"{ 	c #1D1D1D",
"] 	c #2A2A2A",
"^ 	c #353535",
"/ 	c #3E3E3E",
"( 	c #464646",
"_ 	c #4C4C4C",
": 	c #4F4F4F",
"< 	c #535353",
"[ 	c #545454",
"} 	c #505050",
"| 	c #4D4D4D",
"1 	c #474747",
"2 	c #404040",
"3 	c #373737",
"4 	c #2C2C2C",
"5 	c #111111",
"6 	c #333333",
"7 	c #414141",
"8 	c #5A5A5A",
"9 	c #646464",
"0 	c #6D6D6D",
"a 	c #737373",
"b 	c #767676",
"c 	c #7A7A7A",
"d 	c #7B7B7B",
"e 	c #777777",
"f 	c #747474",
"g 	c #6E6E6E",
"h 	c #666666",
"i 	c #5C5C5C",
"j 	c #515151",
"k 	c #444444",
"l 	c #363636",
"m 	c #141414",
"n 	c #0A0A0A",
"o 	c #1E1E1E",
"p 	c #323232",
"q 	c #454545",
"r 	c #565656",
"s 	c #808080",
"t 	c #8A8A8A",
"u 	c #939393",
"v 	c #999999",
"w 	c #9D9D9D",
"x 	c #A1A1A1",
"y 	c #A2A2A2",
"z 	c #9E9E9E",
"A 	c #9B9B9B",
"B 	c #949494",
"C 	c #8C8C8C",
"D 	c #828282",
"E 	c #686868",
"F 	c #595959",
"G 	c #484848",
"H 	c #0E0E0E",
"I 	c #282828",
"J 	c #676767",
"K 	c #797979",
"L 	c #989898",
"M 	c #A6A6A6",
"N 	c #B1B1B1",
"O 	c #BABABA",
"P 	c #C0C0C0",
"Q 	c #C3C3C3",
"R 	c #C5C5C5",
"S 	c #C4C4C4",
"T 	c #C1C1C1",
"U 	c #BBBBBB",
"V 	c #B3B3B3",
"W 	c #A8A8A8",
"X 	c #8D8D8D",
"Y 	c #7C7C7C",
"Z 	c #6B6B6B",
"` 	c #575757",
" .	c #434343",
"..	c #161616",
"+.	c #171717",
"@.	c #2F2F2F",
"#.	c #5E5E5E",
"$.	c #898989",
"%.	c #9C9C9C",
"&.	c #AEAEAE",
"*.	c #BDBDBD",
"=.	c #C7C7C7",
"-.	c #CBCBCB",
";.	c #CECECE",
">.	c #CFCFCF",
",.	c #CDCDCD",
"'.	c #CCCCCC",
").	c #C8C8C8",
"!.	c #A0A0A0",
"~.	c #636363",
"{.	c #343434",
"].	c #1C1C1C",
"^.	c #4E4E4E",
"/.	c #7E7E7E",
"(.	c #959595",
"_.	c #ABABAB",
":.	c #BEBEBE",
"<.	c #CACACA",
"[.	c #D2D2D2",
"}.	c #D5D5D5",
"|.	c #D9D9D9",
"1.	c #DBDBDB",
"2.	c #DCDCDC",
"3.	c #D6D6D6",
"4.	c #D4D4D4",
"5.	c #D1D1D1",
"6.	c #AFAFAF",
"7.	c #9A9A9A",
"8.	c #6A6A6A",
"9.	c #525252",
"0.	c #393939",
"a.	c #858585",
"b.	c #B5B5B5",
"c.	c #D3D3D3",
"d.	c #DEDEDE",
"e.	c #E1E1E1",
"f.	c #DFDFDF",
"g.	c #D7D7D7",
"h.	c #C9C9C9",
"i.	c #B9B9B9",
"j.	c #6F6F6F",
"k.	c #2E2E2E",
"l.	c #868686",
"m.	c #DDDDDD",
"n.	c #E0E0E0",
"o.	c #D8D8D8",
"p.	c #BFBFBF",
"q.	c #A7A7A7",
"r.	c #080808",
"s.	c #656565",
"t.	c #848484",
"u.	c #C2C2C2",
"v.	c #0D0D0D",
"w.	c #3C3C3C",
"x.	c #D0D0D0",
"y.	c #424242",
"z.	c #727272",
"A.	c #C6C6C6",
"B.	c #585858",
"C.	c #1F1F1F",
"D.	c #878787",
"E.	c #A9A9A9",
"F.	c #DADADA",
"G.	c #B8B8B8",
"H.	c #BCBCBC",
"I.	c #0C0C0C",
"J.	c #B0B0B0",
"K.	c #B6B6B6",
"L.	c #9F9F9F",
"M.	c #7D7D7D",
"N.	c #3D3D3D",
"O.	c #616161",
"P.	c #AAAAAA",
"Q.	c #ACACAC",
"R.	c #252525",
"S.	c #4A4A4A",
"T.	c #B2B2B2",
"U.	c #B7B7B7",
"V.	c #0B0B0B",
"W.	c #303030",
"X.	c #555555",
"Y.	c #ADADAD",
"Z.	c #5D5D5D",
"`.	c #131313",
" +	c #383838",
".+	c #1A1A1A",
"++	c #B4B4B4",
"@+	c #6C6C6C",
"#+	c #979797",
"$+	c #969696",
"%+	c #929292",
"&+	c #3F3F3F",
"*+	c #8B8B8B",
"=+	c #5B5B5B",
"-+	c #232323",
";+	c #919191",
">+	c #3A3A3A",
",+	c #838383",
"'+	c #606060",
")+	c #A5A5A5",
"!+	c #8F8F8F",
"~+	c #181818",
"{+	c #787878",
"]+	c #7F7F7F",
"^+	c #818181",
"/+	c #151515",
"(+	c #A4A4A4",
"_+	c #2B2B2B",
"                                                                                                    ",
"                                                                                                    ",
"                                          . + @ # # @ $ .                                           ",
"                                  % # & * = - ; > > ; , ' ) ! ~ .                                   ",
"                              $ & { ] ^ / ( _ : < [ } | 1 2 3 4 = ! @                               ",
"                          . 5 ' 6 7 : 8 9 0 a b c d e f g h i j k l - m $                           ",
"                        n o p q r h f s t u v w x y z A B C D b E F G ^ ' H %                       ",
"                    % 5 I / < J K t L M N O P Q R R S T U V W A X Y Z `  .4 ..+                     ",
"                  . +.@.1 #.f $.%.&.*.=.-.;.>.>.>.>.;.,.,.'.).P N !.X K ~._ {.].$                   ",
"                . ) {.^.h /.(._.:.<.>.[.}.|.1.2.1.|.3.4.5.>.,.,.-.T 6.7.D 8.9.0.= $                 ",
"              % ..6 j 8.a.%.b.).>.c.|.d.e.e.e.e.e.e.f.|.g.3.c.>.,.,.h.i.x t j.` 0.]..               ",
"              & k.| 8.l.y U -.[.g.m.e.e.e.n.n.f.d.d.d.2.g.o.g.}.5.,.,.'.p.q.C j.9.{...%             ",
"            r.- ( s.t.x :.,.c.o.f.e.e.n.m.1.|.o.g.g.g.3.>.5.}.g.3.[.,.,.,.u.q.t 8._ 4 v.            ",
"          . ].w.i Y %.O ,.4.o.n.e.n.m.|.g.}.c.[.5.5.[.;.).<.,.x.}.g.c.,.,.'.P y D ~.y.' $           ",
"          H @.j z.u V -.[.g.m.e.n.1.g.4.[.x.;.,.'.'.-.Q T Q A.<.;.c.3.5.,.,.'.i.v K B.^ m           ",
"        . C.7 9 D.E.A.x.3.|.n.n.F.3.[.x.,.-.h.).=.A.p.G.O H.P Q ).'.[.}.>.,.,.h.6.X Z G - @         ",
"        I.@.9.b v U ,.4.o.F.n.1.3.[.;.-.).R S u.P G.J.N V K.i.*.u.=.'.c.c.,.,.,.T L.M.F l !         ",
"      % * N.O.l.P.).5.g.o.o.1.g.[.;.<.A.Q P :.i.6.W W P.Q.J.V G.H.u.).;.4.x.,.,.-.N X E k = .       ",
"      $ R.S.j.B i.,.4.o.o.}.5.[.>.<.A.u.:.G.6.W M M M M q.P.&.T.U.*.Q h.x.[.,.,.,.P A b j 4 ~       ",
"      V.W.X.d x S >.3.o.o.5.<.R u.p.O V Q.q.M M M M M M M M W Y.V i.p.R '.[.;.,.,.).W D Z.3 !       ",
"      `. +#.t._.h.5.g.o.3.,.=.P i.V Y.q.M M M M M M M M M M M E.6.b.H.u.h.>.>.,.,.'.V C h 2 )       ",
"      .+2 h X ++'.[.o.o.4.-.S *.K.J.E.M M M M M M M M M M M M q._.T.i.P =.,.x.,.,.,.U B g 1 ' .     ",
"    % C.( @+u O ,.4.o.o.5.h.u.U ++Y.q.M M M M M M M M M M M M M E.J.U.:.R '.>.,.,.,.T A f | , $     ",
"    . ' G j.#+:.,.4.o.o.x.).T O T._.M M M M M M M M M M M M M M q.&.b.H.Q -.;.,.,.,.S z e } ; @     ",
"    + R._ a 7.P ,.4.o.g.>.=.P i.N P.M M M M M M M M M M M M M M q.Y.++U u.<.,.,.,.,.R y d [ > #     ",
"    + R._ a 7.P ,.c.o.g.;.=.P i.N E.M M M M M M M M M M W P._._.&.b.H.T R <.,.,.,.,.R x c < > #     ",
"    . ' G j.$+*.,.[.g.g.>.).P i.T.P.M M M M M M M q.P._.Q.Q.Q.Q.6.K.:.R '.x.'.,.,.,.Q w b : ; @     ",
"    % o q Z %+i.'.x.g.o.5.h.u.U V Q.q.M M M M q.P.Q.Q.Q.Q.Q.Q.Q.N G.p.A.,.c.5.,.,.,.P v a _ - +     ",
"      * &+s.*+T.'.;.}.o.c.<.Q H.b.6.W M M M W _.Q.Q.Q.Q.Q.Q.Q.Y.V O T ).>.c.}.;.,.,.i.u @+( = .     ",
"      ! 3 Z.D E.h.,.c.g.}.'.R p.G.T._.q.M E.Q.Q.Q.Q.Q.Q.Q.Q.Q.J.K.*.S <.5.c.3.>.,.-.N t 9 / *       ",
"      ~ k.[ K L.u.,.>.3.g.>.).u.H.b.6.P._.Q.Q.Q.Q.Q.Q.Q.Q.Q.6.b.O P =.,.[.4.g.;.,.=.M s =+^ &       ",
"      + -+1 @+;+K.'.,.c.g.4.'.R p.i.++V V 6.Y.Q.Q.Q.Q.Q.Y.J.++i.p.S <.x.[.3.}.,.,.*.L a : ] #       ",
"        ..>+#.,+q.A.,.>.}.g.x.<.Q :.O H.i.b.T.6.&.&.&.J.V K.O :.Q h.>.[.4.g.5.,.<.&.t h 7 { %       ",
"        ~ 4 : z.(.G.'.,.x.3.}.;.).Q Q Q p.U i.U.b.b.K.U.i.H.P S h.;.5.[.g.}.,.,.:.%.K r 6 &         ",
"        % ]./ '+,+)+Q ,.,.5.3.4.,.h.-.h.R u.p.:.*.H.*.:.P Q A.<.;.5.[.3.3.>.,.=._.$.J k ' +         ",
"          n 4 | g !+6.).,.,.x.}.4.>.[.>.-.).A.R S Q S R =.h.'.x.5.[.3.3.>.,.-.b.(.f < p 5           ",
"          % ~+ +B.{+#+K.-.,.,.>.c.}.o.}.[.>.,.-.-.<.-.'.;.x.5.[.c.g.}.>.,.'.H.w /.#./ o .           ",
"            @ ' 7 '+]+%.i.<.,.,.,.x.o.1.o.3.4.c.[.5.[.[.c.c.4.3.g.c.;.,.'.:.y a.h 1 I ~             ",
"              V.; G s.^+%.b.).,.,.,.;.3.F.F.|.o.g.3.}.}.3.3.g.4.>.,.,.<.O x l.8.^.@.5               ",
"                5 k.| s.]+#+6.S '.,.,.;.5.}.g.o.o.o.g.g.}.[.;.,.,.'.A.V %.,+8.j {.+.%               ",
"                % /+k.G '+{+!+(+G.=.'.,.,.,.>.x.x.x.>.;.,.,.,.,.).U W u Y s.| 6 ) .                 ",
"                  % 5 ; 7 B.g D (.q.K.u.h.'.,.,.,.,.,.,.'.<.S i.P.v l.z.Z.( k.+..                   ",
"                      I.'  +| '+z.,+;+z E.T.i.*.P P :.O ++_.x B l.b 9 } w.- & %                     ",
"                        @ ~+_+/ : #.0 K ,+*+%+$+7.7.#+u X t.d j.O.9.7 @.].r.                        ",
"                          % V.].4 >+G < Z.s.Z j.a a j.@+J #.X.S.N.@.C.H .                           ",
"                              % ~ ..-+> 3 &+q G _ _ G ( 2  +@.R.* I..                               ",
"                                    + n ! * o ' R.R.' C..+`.V.$ %                                   ",
"                                            % . + + . %                                             ",
"                                                                                                    ",
"                                                                                                    "};
