/* XPM */
static char * smerf50x50_xpm[] = {
"50 50 828 2",
"  	c #000001",
". 	c #0C0C11",
"+ 	c #82828B",
"@ 	c #8B8D97",
"# 	c #8A8C97",
"$ 	c #8B8C98",
"% 	c #323237",
"& 	c #1A1A21",
"* 	c #CECBE2",
"= 	c #D9D9F5",
"- 	c #D9D9F6",
"; 	c #DCDBF3",
"> 	c #51525A",
", 	c #17171F",
"' 	c #CECCE6",
") 	c #DADAF5",
"! 	c #DCD9F6",
"~ 	c #53535D",
"{ 	c #000002",
"] 	c #020202",
"^ 	c #17171E",
"/ 	c #CECBE5",
"( 	c #D9D8FA",
"_ 	c #D9D9F9",
": 	c #DADAF7",
"< 	c #9090A2",
"[ 	c #7F7E8E",
"} 	c #7F7F8E",
"| 	c #7F7F8D",
"1 	c #80808F",
"2 	c #80808E",
"3 	c #424048",
"4 	c #181820",
"5 	c #CDCAE8",
"6 	c #D9D9F8",
"7 	c #D9DAF8",
"8 	c #D9D9F7",
"9 	c #D6D9F7",
"0 	c #D9D8F8",
"a 	c #DAD9F6",
"b 	c #D8D8F9",
"c 	c #DADAF6",
"d 	c #747481",
"e 	c #010101",
"f 	c #CDCAE5",
"g 	c #D8D9F9",
"h 	c #D8DAF8",
"i 	c #D7DAF9",
"j 	c #D6D9F9",
"k 	c #D8D8F8",
"l 	c #DAD9F8",
"m 	c #D9D8F9",
"n 	c #D9D7FA",
"o 	c #757583",
"p 	c #020105",
"q 	c #000102",
"r 	c #000000",
"s 	c #1D1D21",
"t 	c #7E7C8A",
"u 	c #7E7D8D",
"v 	c #7D7D8D",
"w 	c #7F7E8D",
"x 	c #807E8D",
"y 	c #818090",
"z 	c #D2D0EC",
"A 	c #D5DAFB",
"B 	c #DAD9F7",
"C 	c #D8D7F8",
"D 	c #DCDBF7",
"E 	c #9A99AC",
"F 	c #808090",
"G 	c #80808D",
"H 	c #434349",
"I 	c #010001",
"J 	c #010104",
"K 	c #35363D",
"L 	c #D8D8EE",
"M 	c #D8D8F5",
"N 	c #D6D8FA",
"O 	c #D7D8F8",
"P 	c #D9D8F7",
"Q 	c #D7D7F7",
"R 	c #D8D8F4",
"S 	c #DADBF3",
"T 	c #7B7C86",
"U 	c #010103",
"V 	c #34343B",
"W 	c #D9D7EE",
"X 	c #D8D7F7",
"Y 	c #D6D9FB",
"Z 	c #D6DAF9",
"` 	c #D8D9F8",
" .	c #D7D9F8",
"..	c #D8D9F7",
"+.	c #D8D9F4",
"@.	c #7D7D8A",
"#.	c #010102",
"$.	c #242329",
"%.	c #7B7A87",
"&.	c #7D7C8A",
"*.	c #7B7B87",
"=.	c #7A7B87",
"-.	c #DAD7F2",
";.	c #D7D9FA",
">.	c #D8D8F7",
",.	c #9E9EB1",
"'.	c #7A7A87",
").	c #797983",
"!.	c #49494E",
"~.	c #020103",
"{.	c #4A4650",
"].	c #DBDAF3",
"^.	c #D9DAFA",
"/.	c #DAD9F4",
"(.	c #D9DBF7",
"_.	c #D9D9F4",
":.	c #D7D8F5",
"<.	c #D8D7F9",
"[.	c #D5D9F8",
"}.	c #D7DAF7",
"|.	c #D5D9FA",
"1.	c #D8D9FA",
"2.	c #D8D7FA",
"3.	c #DADAF0",
"4.	c #8D8C96",
"5.	c #010003",
"6.	c #4A4951",
"7.	c #D8D8EC",
"8.	c #DAD9EF",
"9.	c #DAD8F0",
"0.	c #D6D9FA",
"a.	c #D7D7F1",
"b.	c #D6D7F7",
"c.	c #D9D9F0",
"d.	c #D9D8F0",
"e.	c #D5D8F3",
"f.	c #D8D8F1",
"g.	c #D7D9F3",
"h.	c #D8D8F2",
"i.	c #D8D7F6",
"j.	c #D8D6F5",
"k.	c #D9D6F3",
"l.	c #DAD7F3",
"m.	c #D9D7F6",
"n.	c #DBD6F8",
"o.	c #8A899A",
"p.	c #020102",
"q.	c #3A3E4F",
"r.	c #A7C1E7",
"s.	c #A8C1EC",
"t.	c #AABFE4",
"u.	c #B3B4CB",
"v.	c #B3B4C4",
"w.	c #B0B5CC",
"x.	c #AAC2E7",
"y.	c #A4C3EC",
"z.	c #A9C2E7",
"A.	c #B2B5CD",
"B.	c #B1B6CA",
"C.	c #B4B6C5",
"D.	c #A9C1E5",
"E.	c #A5C1EA",
"F.	c #A6C2EA",
"G.	c #A7C2EA",
"H.	c #A7C3EB",
"I.	c #A8C4EC",
"J.	c #A8C3EC",
"K.	c #A6C3EB",
"L.	c #A6C2EB",
"M.	c #A5C1EB",
"N.	c #A4C2E9",
"O.	c #C8D4F4",
"P.	c #D9D9F2",
"Q.	c #D8DAF9",
"R.	c #DAD8F8",
"S.	c #D6D9F8",
"T.	c #8C8B9A",
"U.	c #030001",
"V.	c #062146",
"W.	c #186BC4",
"X.	c #056ED7",
"Y.	c #1861AD",
"Z.	c #050820",
"`.	c #03030A",
" +	c #071A35",
".+	c #1969C5",
"++	c #0D6DCE",
"@+	c #1866BD",
"#+	c #04112D",
"$+	c #020E29",
"%+	c #1365BA",
"&+	c #096ED0",
"*+	c #0A6ED0",
"=+	c #0B6DD1",
"-+	c #0B6DD3",
";+	c #0B6DD8",
">+	c #0A6DD6",
",+	c #0A6ED2",
"'+	c #096ED2",
")+	c #0F6BC8",
"!+	c #B1C5E9",
"~+	c #D4DAFB",
"{+	c #D6DAF7",
"]+	c #8D8C9B",
"^+	c #052249",
"/+	c #126CCA",
"(+	c #036ED8",
"_+	c #1164B7",
":+	c #03071C",
"<+	c #020104",
"[+	c #061A39",
"}+	c #146AC9",
"|+	c #036FD8",
"1+	c #1168C5",
"2+	c #02112D",
"3+	c #020E27",
"4+	c #1265BE",
"5+	c #0270D8",
"6+	c #0170D7",
"7+	c #0270D6",
"8+	c #016FD8",
"9+	c #016FD9",
"0+	c #056FD2",
"a+	c #B1C5ED",
"b+	c #D4DAF9",
"c+	c #8B8B9A",
"d+	c #052047",
"e+	c #116CC9",
"f+	c #1065B6",
"g+	c #03071B",
"h+	c #05193B",
"i+	c #146AC5",
"j+	c #026FD8",
"k+	c #1164BE",
"l+	c #B3C6ED",
"m+	c #D2DAFB",
"n+	c #D9D7F4",
"o+	c #8B8B99",
"p+	c #052046",
"q+	c #0F64B6",
"r+	c #02071B",
"s+	c #156BC5",
"t+	c #1268C2",
"u+	c #02102C",
"v+	c #1064BE",
"w+	c #B2C4EC",
"x+	c #D3D9FA",
"y+	c #D9D8F3",
"z+	c #8A8A98",
"A+	c #036FD9",
"B+	c #1163B5",
"C+	c #04081D",
"D+	c #030104",
"E+	c #05193A",
"F+	c #1267C1",
"G+	c #02102D",
"H+	c #0170D9",
"I+	c #0270D7",
"J+	c #016FDA",
"K+	c #066ED1",
"L+	c #B1C4ED",
"M+	c #8B8B98",
"N+	c #051938",
"O+	c #1C5AA0",
"P+	c #145EB0",
"Q+	c #1A5597",
"R+	c #102D58",
"S+	c #122F58",
"T+	c #0F3B6D",
"U+	c #116DC8",
"V+	c #0171DF",
"W+	c #1567BE",
"X+	c #10376C",
"Y+	c #10315D",
"Z+	c #0D315F",
"`+	c #1168C1",
" @	c #0270DA",
".@	c #0170DA",
"+@	c #0170D8",
"@@	c #046FD6",
"#@	c #4C88D1",
"$@	c #588ED6",
"%@	c #5D8DCE",
"&@	c #B9C8EE",
"*@	c #DAD7F9",
"=@	c #8C8B9B",
"-@	c #010105",
";@	c #03030F",
">@	c #040414",
",@	c #061E40",
"'@	c #1F69BC",
")@	c #1070D3",
"!@	c #0E6CCE",
"~@	c #046FD4",
"{@	c #0271DB",
"]@	c #056FD5",
"^@	c #116DD1",
"/@	c #126ED4",
"(@	c #106FD4",
"_@	c #056FD6",
":@	c #026FD9",
"<@	c #0D6ECF",
"[@	c #B0C9F1",
"}@	c #D4DBF2",
"|@	c #D2DBF6",
"1@	c #D6D9F6",
"2@	c #DBD7F7",
"3@	c #DAD7FA",
"4@	c #8A8B97",
"5@	c #030103",
"6@	c #020207",
"7@	c #061B3A",
"8@	c #136BCA",
"9@	c #0570D5",
"0@	c #076DD7",
"a@	c #0370D9",
"b@	c #046ED6",
"c@	c #046FD5",
"d@	c #036FDC",
"e@	c #036EDC",
"f@	c #0371D8",
"g@	c #046FD8",
"h@	c #106DCD",
"i@	c #B2CAF3",
"j@	c #D8D8FA",
"k@	c #D9DAF3",
"l@	c #D7D8F7",
"m@	c #D7D8FA",
"n@	c #D9DAF6",
"o@	c #D7D9F6",
"p@	c #8A8A97",
"q@	c #020002",
"r@	c #1B0405",
"s@	c #5D0506",
"t@	c #530404",
"u@	c #4B0507",
"v@	c #050104",
"w@	c #040103",
"x@	c #041834",
"y@	c #1A5BA2",
"z@	c #175EAB",
"A@	c #1B61B4",
"B@	c #5088D5",
"C@	c #5088D6",
"D@	c #5188D4",
"E@	c #5189DA",
"F@	c #5289D1",
"G@	c #5289D0",
"H@	c #5288D0",
"I@	c #5289D2",
"J@	c #5288D2",
"K@	c #5189D3",
"L@	c #5089D3",
"M@	c #5088D3",
"N@	c #5088D4",
"O@	c #5185CB",
"P@	c #99BDE9",
"Q@	c #B3CCF1",
"R@	c #B5C8EF",
"S@	c #B1CBEF",
"T@	c #B2CBF0",
"U@	c #B4C9EF",
"V@	c #BAC2DE",
"W@	c #C0C0D5",
"X@	c #C1C0D5",
"Y@	c #C0BFD6",
"Z@	c #C0BFD4",
"`@	c #7B7B86",
" #	c #030106",
".#	c #050103",
"+#	c #52070A",
"@#	c #DE0D12",
"##	c #E40A0E",
"$#	c #BF0F17",
"%#	c #210203",
"&#	c #050304",
"*#	c #050303",
"=#	c #05040F",
"-#	c #010518",
";#	c #343640",
">#	c #D3D7F1",
",#	c #D4DCFA",
"'#	c #D3DBF7",
")#	c #D3DAF7",
"!#	c #D4DAF7",
"~#	c #C9DCFA",
"{#	c #5285C6",
"]#	c #0F6BCC",
"^#	c #0C6CCF",
"/#	c #086DD3",
"(#	c #086DD4",
"_#	c #146CCC",
":#	c #0A3567",
"<#	c #000003",
"[#	c #000004",
"}#	c #000007",
"|#	c #020205",
"1#	c #050406",
"2#	c #5F0709",
"3#	c #EB080C",
"4#	c #F80203",
"5#	c #CB090D",
"6#	c #1C0103",
"7#	c #090209",
"8#	c #050409",
"9#	c #373840",
"0#	c #D6D6EE",
"a#	c #D7D7F5",
"b#	c #D6D8F4",
"c#	c #D6DAFA",
"d#	c #D7D8F9",
"e#	c #D3DCF6",
"f#	c #5087D0",
"g#	c #0370DE",
"h#	c #0271D7",
"i#	c #0370D4",
"j#	c #0A6EC9",
"k#	c #0B3665",
"l#	c #020204",
"m#	c #030206",
"n#	c #030302",
"o#	c #020101",
"p#	c #1D0304",
"q#	c #4D0D10",
"r#	c #5A0708",
"s#	c #7F080A",
"t#	c #EE0608",
"u#	c #F40406",
"v#	c #C9090F",
"w#	c #200103",
"x#	c #040206",
"y#	c #151518",
"z#	c #5B5B63",
"A#	c #5E5E68",
"B#	c #64636E",
"C#	c #DAD8F9",
"D#	c #D9D7F8",
"E#	c #DAD7F7",
"F#	c #DBD6F6",
"G#	c #DAD7F6",
"H#	c #D2DAF8",
"I#	c #5287CC",
"J#	c #0470D9",
"K#	c #056DDA",
"L#	c #036FDD",
"M#	c #0370DA",
"N#	c #0A6ECD",
"O#	c #435B87",
"P#	c #60606A",
"Q#	c #5F5F69",
"R#	c #2D2D32",
"S#	c #040403",
"T#	c #040208",
"U#	c #610709",
"V#	c #DE0E14",
"W#	c #E70809",
"X#	c #ED0507",
"Y#	c #F60203",
"Z#	c #F70202",
"`#	c #CA090F",
" $	c #1E0102",
".$	c #050208",
"+$	c #3C3C45",
"@$	c #D5D7ED",
"#$	c #D6DAF6",
"$$	c #D8DAF6",
"%$	c #D7DAF6",
"&$	c #D9D8F6",
"*$	c #DAD8F7",
"=$	c #D2DAF5",
"-$	c #5187D0",
";$	c #0270DF",
">$	c #0370D6",
",$	c #0370D8",
"'$	c #096CCC",
")$	c #A2C0EC",
"!$	c #7D7D8B",
"~$	c #020001",
"{$	c #020209",
"]$	c #640506",
"^$	c #ED060A",
"/$	c #F50203",
"($	c #F60204",
"_$	c #F60202",
":$	c #F80102",
"<$	c #CD080F",
"[$	c #1D0104",
"}$	c #3D3D45",
"|$	c #D6D7ED",
"1$	c #D9D7F9",
"2$	c #DCD8F7",
"3$	c #D7D9FB",
"4$	c #D7D8FB",
"5$	c #D8D7FB",
"6$	c #D0DBF9",
"7$	c #4F87CE",
"8$	c #0271DA",
"9$	c #056ED8",
"0$	c #076DDC",
"a$	c #046EDF",
"b$	c #0A6DD0",
"c$	c #A5BCE8",
"d$	c #DBDAF8",
"e$	c #7E7D8A",
"f$	c #020106",
"g$	c #230403",
"h$	c #4C0506",
"i$	c #4E0607",
"j$	c #8C0A0C",
"k$	c #F4040D",
"l$	c #F90102",
"m$	c #FA0102",
"n$	c #D2080D",
"o$	c #570506",
"p$	c #500407",
"q$	c #66363E",
"r$	c #E6BFD3",
"s$	c #E6C3DE",
"t$	c #E8C1DA",
"u$	c #E9C1D8",
"v$	c #E8C1D8",
"w$	c #ECC0D8",
"x$	c #E6C1D9",
"y$	c #E7C2D4",
"z$	c #CACCED",
"A$	c #C0D0F3",
"B$	c #C0D1F2",
"C$	c #C0D2F2",
"D$	c #C0D1F3",
"E$	c #B9D0F3",
"F$	c #4783CE",
"G$	c #066FD8",
"H$	c #3663B2",
"I$	c #4F5CA7",
"J$	c #4F5AAA",
"K$	c #C2AAC6",
"L$	c #E9C0D7",
"M$	c #E7C3D8",
"N$	c #8D6870",
"O$	c #4E0404",
"P$	c #4F0506",
"Q$	c #250403",
"R$	c #010303",
"S$	c #040204",
"T$	c #660809",
"U$	c #D81014",
"V$	c #E20D11",
"W$	c #E8090C",
"X$	c #F40303",
"Y$	c #F50202",
"Z$	c #F70203",
"`$	c #F40308",
" %	c #E10C0E",
".%	c #E40B0E",
"+%	c #E20C0D",
"@%	c #E30A10",
"#%	c #E5070D",
"$%	c #E6070D",
"%%	c #E5070E",
"&%	c #DF090F",
"*%	c #E10813",
"=%	c #C81939",
"-%	c #445DA9",
";%	c #096BCD",
">%	c #086BCD",
",%	c #096BCC",
"'%	c #0B6CD1",
")%	c #036EDB",
"!%	c #1E69CA",
"~%	c #A03767",
"{%	c #E00F22",
"]%	c #DC1020",
"^%	c #DF0B13",
"/%	c #E3070D",
"(%	c #E1080D",
"_%	c #E5090C",
":%	c #DC0F16",
"<%	c #770D10",
"[%	c #730608",
"}%	c #EC0607",
"|%	c #EE0504",
"1%	c #F30303",
"2%	c #F80202",
"3%	c #F50306",
"4%	c #F40307",
"5%	c #F60205",
"6%	c #F70204",
"7%	c #F70208",
"8%	c #D4162C",
"9%	c #4161B7",
"0%	c #0470D2",
"a%	c #0271D5",
"b%	c #0370D3",
"c%	c #1D69C2",
"d%	c #B42D5C",
"e%	c #F20405",
"f%	c #F80206",
"g%	c #F30407",
"h%	c #82090B",
"i%	c #5C0708",
"j%	c #C30F11",
"k%	c #CB0A0E",
"l%	c #DA080D",
"m%	c #EC0507",
"n%	c #D00B0F",
"o%	c #CE0A0E",
"p%	c #D60F13",
"q%	c #E74048",
"r%	c #E63C45",
"s%	c #E63C43",
"t%	c #E53C45",
"u%	c #E23C47",
"v%	c #E23C44",
"w%	c #C24757",
"x%	c #3B62B8",
"y%	c #036ED9",
"z%	c #0471D5",
"A%	c #2D79D9",
"B%	c #3C7BD1",
"C%	c #4976BE",
"D%	c #AA5575",
"E%	c #D93E45",
"F%	c #E04049",
"G%	c #D72228",
"H%	c #D00A0F",
"I%	c #D10A0F",
"J%	c #D00A0E",
"K%	c #CC0B0D",
"L%	c #C90C0E",
"M%	c #6D0D10",
"N%	c #140206",
"O%	c #250204",
"P%	c #200104",
"Q%	c #760708",
"R%	c #ED0509",
"S%	c #F60302",
"T%	c #C50B0E",
"U%	c #3A0202",
"V%	c #240305",
"W%	c #4D3A41",
"X%	c #E2D1E6",
"Y%	c #E4D4EF",
"Z%	c #E5D6EE",
"`%	c #E5D5ED",
" &	c #E5D4EC",
".&	c #E5D3EC",
"+&	c #E4D5EC",
"@&	c #E9D1EA",
"#&	c #DBD2EE",
"$&	c #2F78D0",
"%&	c #0C6ECA",
"&&	c #AACBF2",
"*&	c #D0DBF3",
"=&	c #CBDCFB",
"-&	c #E1D6F0",
";&	c #EAD2EB",
">&	c #E7D1EA",
",&	c #866C74",
"'&	c #230203",
")&	c #230304",
"!&	c #220303",
"~&	c #240105",
"{&	c #250205",
"]&	c #0E0604",
"^&	c #030107",
"/&	c #6D0708",
"(&	c #F0050A",
"_&	c #F70205",
":&	c #CA0A0E",
"<&	c #1E0002",
"[&	c #3D3C45",
"}&	c #D7D4F0",
"|&	c #D8D6F9",
"1&	c #D7D6F8",
"2&	c #D7D8F6",
"3&	c #D8D8F6",
"4&	c #D6D8FB",
"5&	c #CDD7F7",
"6&	c #3478D0",
"7&	c #066FD5",
"8&	c #0E6DCE",
"9&	c #B2C8F1",
"0&	c #DBD7F6",
"a&	c #D7D7FA",
"b&	c #72717F",
"c&	c #030307",
"d&	c #040307",
"e&	c #010002",
"f&	c #5E0A0C",
"g&	c #CA0F13",
"h&	c #D30D0E",
"i&	c #D90B0E",
"j&	c #1D0102",
"k&	c #040106",
"l&	c #3B3B42",
"m&	c #D1CFE3",
"n&	c #D4D4EA",
"o&	c #D3D2E9",
"p&	c #DBD8F6",
"q&	c #CBD9FA",
"r&	c #4D82CA",
"s&	c #3D7CD3",
"t&	c #3D7CD2",
"u&	c #3E7CD3",
"v&	c #3F7BCB",
"w&	c #B5C9F1",
"x&	c #45454D",
"y&	c #46464E",
"z&	c #212125",
"A&	c #0B0001",
"B&	c #270001",
"C&	c #220204",
"D&	c #630709",
"E&	c #EA080B",
"F&	c #F50304",
"G&	c #1D0002",
"H&	c #33343C",
"I&	c #D4D5EE",
"J&	c #D7D9F9",
"K&	c #D6DAF8",
"L&	c #D5D8F8",
"M&	c #D2D9F9",
"N&	c #D1DAF7",
"O&	c #DAD9F1",
"P&	c #D9D7F7",
"Q&	c #D9D8F4",
"R&	c #7D7C89",
"S&	c #030203",
"T&	c #5E0607",
"U&	c #EB0809",
"V&	c #C80A0E",
"W&	c #020206",
"X&	c #D7D7EF",
"Y&	c #D8DAF7",
"Z&	c #D5D9FB",
"`&	c #DCD8F6",
" *	c #D8D9F5",
".*	c #D8D9F3",
"+*	c #7E7E89",
"@*	c #4F080A",
"#*	c #CE1117",
"$*	c #D80C14",
"%*	c #AC1319",
"&*	c #250101",
"**	c #313138",
"=*	c #D1D0E5",
"-*	c #D3D3EC",
";*	c #D3D2ED",
">*	c #D1D2ED",
",*	c #D1D1EC",
"'*	c #D3D2EC",
")*	c #D1D1EB",
"!*	c #D2D2EC",
"~*	c #D2D2EA",
"{*	c #D2D1ED",
"]*	c #D1D1EA",
"^*	c #D7D8F4",
"/*	c #D9DAF4",
"(*	c #7D7D89",
"_*	c #110306",
":*	c #300102",
"<*	c #2C0403",
"[*	c #050202",
"}*	c #050506",
"|*	c #1A1A1F",
"1*	c #17161D",
"2*	c #292831",
"3*	c #D1D0E9",
"4*	c #DBDBF3",
"5*	c #3C3D45",
"6*	c #16161C",
"7*	c #15151B",
"8*	c #16171F",
"9*	c #BABAD0",
"0*	c #060204",
"a*	c #1F1F25",
"b*	c #D1D1E9",
"c*	c #DBD9F3",
"d*	c #35353D",
"e*	c #B9B9CE",
"f*	c #D9DAF5",
"g*	c #07060B",
"h*	c #26252C",
"i*	c #28282E",
"j*	c #28282D",
"k*	c #35353E",
"l*	c #D1D0EA",
"m*	c #DADAF4",
"n*	c #020203",
"o*	c #222228",
"p*	c #28292F",
"q*	c #29292F",
"r*	c #28272E",
"s*	c #BBBCD0",
"t*	c #3A3B43",
"u*	c #CFD0E6",
"v*	c #D2D4EC",
"w*	c #D2D4EB",
"x*	c #D5D5EA",
"y*	c #D4D4EB",
"z*	c #D4D3EC",
"A*	c #D8D7F5",
"B*	c #DBDBF4",
"C*	c #343439",
"D*	c #BCBCCB",
"E*	c #D3D3EB",
"F*	c #D5D4ED",
"G*	c #D5D3EC",
"H*	c #D7D6F4",
"I*	c #020201",
"J*	c #3E3E46",
"K*	c #D4D6EF",
"L*	c #35363C",
"M*	c #020208",
"N*	c #C4C3D5",
"O*	c #D7D7F8",
"P*	c #7B7A88",
"Q*	c #3D3D44",
"R*	c #D6D6E7",
"S*	c #DAD9F0",
"T*	c #DADAF2",
"U*	c #D9D8F1",
"V*	c #35353C",
"W*	c #030308",
"X*	c #C2C1D0",
"Y*	c #D9DAF2",
"Z*	c #D9D9F3",
"`*	c #DCDCF8",
"                                                                                                    ",
"                                                                                                    ",
"                                                                                                    ",
"                                                                                                    ",
"                                                                                                    ",
"                                                                                                    ",
"                                                                                                    ",
"                                              . + @ # # # # # # $ %                                 ",
"                                              & * = - - - - - - ; >                                 ",
"                                              , ' ) ) ) ) ) ) ) ! ~   {       ] ]                   ",
"                                              ^ / ( ( ( ( _ _ _ : < [ } | 1 2 3 ]                   ",
"                                              4 5 _ 6 _ 6 6 7 8 9 6 0 a 8 b c d {                   ",
"                                  e ] e       4 f 6 6 6 g h h i j 8 k l m n l o p q e               ",
"r                                 s t u v w x y z _ _ 6 g _ i 6 A g _ 6 B C D E F G H               ",
"{ I J                             K L M N O P P Q _ 6 6 6 6 6 6 _ _ 6 _ 6 6 8 - R S T ]             ",
"  r U                             V W X Y Z `  ...6 6 _ 6 _ 6 6 _ 6 _ 6 _ 6 _ m 8 +.@.              ",
"r r                 #.$.%.&.%.*.=.2 -.0 ;. .g 7 g 6 _ 6 _ 6 _ _ _ 6 _ 6 _ _ _ ( _ >.,.'.).!.~.      ",
"r r r r             { {.].^./.(._.:.8 <.[.}.g |.g 1.g g g >.8 >._ b b m 0 0 l _ _ 2.R ) 3.4.5.      ",
"r r r               U 6.7.8.9.0.a.b.c.= d.[.N e.f.+.g.h.i.C C C j.k.k.l.b m.n.m _ 6 _ _ 9 o.{       ",
"r r                 p.q.r.s.t.u.v.w.x.y.z.A.B.C.D.E.F.G.H.I.J.H.K.L.M.N.O.P.Q.8 _ 6 6 R.S.T.{       ",
"r r                 U.V.W.X.Y.Z.`. +.+++@+#+q $+%+&+*+=+-+;+>+;+,+,+'+)+!+_.~+a 6 _ 6 6 {+]+{       ",
"r r                 I ^+/+(+_+:+<+[+}+|+1+2+J 3+4+5+6+6+6+7+7+7+8+9+9+0+a+b+9 6 _ 6 _ _ {+c+        ",
"r r                   d+e+(+f+g+J h+i+j+1+2+J 3+k+9+9+9+9+9+9+9+9+9+9+0+l+m+n+1._ 6 6 _ {+o+{       ",
"r r                   p+e+(+q+r+U h+s+(+t+u+J 3+v+9+9+9+9+9+9+9+9+9+9+0+w+x+y+1._ _ 6 _ {+z+{       ",
"r                     p+e+A+B+C+D+E+s+j+F+G+J 3+v+9+9+9+9+8+8+9+H+I+J+K+L+x+M g 6 6 6 _ {+M+        ",
"r                   p.N+O+P+Q+R+S+T+U+V+W+X+Y+Z+`+ @.@.@H+6+6++@@@#@$@%@&@*@A a : : c 6 {+=@{       ",
"r                     -@;@>@,@'@)@!@~@{@]@^@/@(@_@9+9+9+9+9+9+:@<@[@}@|@1@m k 2@3@n m 6 :.4@        ",
"                  I 5@J { 6@7@8@9@0@a@b@A+ @c@d@e@f@I+5+5+5+b@g@h@i@j@n k@l@m@n@- - a = o@p@{       ",
"              q@r@s@t@u@v@w@x@y@z@A@B@C@D@E@F@G@H@I@I@J@K@L@M@N@O@P@Q@R@S@T@U@V@W@X@X@Y@Z@`@{       ",
"             #.#+#@###$#%#&#*#=#-#;#>#~+,#b+'#'#'#'#)#'#)#!#)#)#~#{#]#^#/#(#_#:#<#[#[#}#<#|#U       ",
"      { { e U.1#2#3#4#5#6#7#8#J p.9#0#a#b#j j c#0.0.j j j d#d#d#e#f#g#c@h#i#j#k#l#m#n#o#  e I       ",
"      #.{ p#q#r#s#t#u#v#w#x#y#z#A#B#d.<.C#D#E#2@F#2@2@E#E#E#E#G#H#I#J#K#L#M#N#O#P#Q#R#S#            ",
"q@I 5@U T#U#V#W#X#Y#Z#`# $.$+$@$#$n@$$o@%$P &$;.- *$E#E#0 k k X =$-$;$@@>$,$'$)$- 7 !$-@J {         ",
"<#~$ #{$T#]$^$/$($_$:$<$[$T#}$|$l@D#m *@1$0 0.2$ .3$3$3$4$5$5$m@6$7$8$9$0$a$b$c$d$M e$#.  ~.<+      ",
"f${ g$h$i$j$k$l$m$l$4#n$o$p$q$r$s$t$u$v$v$w$x$y$z$A$A$B$B$C$D$D$E$F$,$G$H$I$J$K$L$M$N$O$P$Q$R$      ",
"5.S$T$U$V$W$X$Y$Z#:$Z$`$ %.%+%@%#%$%#%#%%%&%*%=%-%;%>%>%>%,%;%'$'%(+)%!%~%{%]%^%/%(%+%_%:%<%5@      ",
"-@p [%}%|%Z#1%Y$Y$Y$Y$1%Z#2%3%4%5%:$6%6%Z$7%_$8%9%8+9+9+9+9+.@5+0%a%b%c%d%e%f%Z#l$:$:$Z#g%h%<+      ",
"w@f$i%j%k%l%($Y$Y$Y$Z#m%n%o%p%q%r%s%t%t%t%u%v%w%x%y%9+9+9+9+9+a%z%A%B%C%D%E%F%G%H%I%J%K%L%M%S$      ",
"I #.N%O%P%Q%R%_$Y$Y$S%T%U%V%W%X%Y%Z%`% &.&+&@&#&$&:@9+9+9+9+9+7+%&&&*&=&-&;&>&,&'&)&!&~&{&]&w@      ",
"    { 5@^&/&(&Y$_&5%Z#:&<&T#[&}&D#|&1&C 2&3&4&5&6&_@_@_@]@_@]@7&8&9&0&a&6 k  .b&c&d&J <#l#e&I       ",
"        U f&g&h&i&6%Z$:&j&k&l&m&n&o&:.O >.p&4$q&r&s&s&s&s&s&t&u&v&w&;.*$_ k ` 1 x&y&z&]             ",
"      U.D+A&B&C&D&E&F&`#G&f$e&r r H&I&J&6 K&1@! L&M&M&M&M&M&M&M&N&O&A g g ` ..M P&Q&R&              ",
"        { e&e&S&T&U&1%V& $W&U 5.{ V X&b b B Y&Y >...J& .b g b b j O Z&`&6 6 %$ *k .*+*              ",
"              e @*#*$*%*&*~.q@  e **=*-*;*= 6 _ _ `  *>*,*'*)*!*,*~*{*]*^*` n@6 ( /*(*              ",
"              e&_*:*<*!&[*  I     }*|*1*2*3*6 _ _ 0 4*5*6*7*7*7*7*7*6*8*9*6 1._ ( /*(*              ",
"              e w@{ 0*k&q@{ {           a*b*6 _ m 3@c*d*              q e*..i ` ( f*(*              ",
"              I ~$q o#    e&g*h*i*j*j*i*k*l*6 6 _ C#m*V n*] o*p*j*j*q*r*s*k 8 R.c 8 @.              ",
"                            t*u*v*w*x*y*z*A*6 6 6 g B*C*5.c&D*E*F*G*z*-*H*1$6 C#) : e$              ",
"                          I*J*K*J&N k >.>.>.8 6 8 >.B*L*U M*N*a b C <.b O*2.B C M 8 P*              ",
"                            Q*R*S*T*n@k@m*a 6 k k k U*V*~.W*X*3.Y*P.P.Z*c 6 >.k >.`**.              "};
