/* XPM */
static char * smerf_n_xpm[] = {
"50 50 828 2",
"  	c #000001",
". 	c #3D3D44",
"+ 	c #D6D6E7",
"@ 	c #DAD9F0",
"# 	c #DADAF2",
"$ 	c #D9DAF6",
"% 	c #D9DAF3",
"& 	c #DADAF4",
"* 	c #DAD9F6",
"= 	c #D9D9F8",
"- 	c #D8D8F8",
"; 	c #D9D8F1",
"> 	c #35353C",
", 	c #020103",
"' 	c #030308",
") 	c #C2C1D0",
"! 	c #DADAF0",
"~ 	c #D9DAF2",
"{ 	c #D9D9F2",
"] 	c #D9D9F3",
"^ 	c #DADAF6",
"/ 	c #D8D8F7",
"( 	c #DCDCF8",
"_ 	c #7B7B87",
": 	c #020201",
"< 	c #3E3E46",
"[ 	c #D4D6EF",
"} 	c #D7D9F9",
"| 	c #D6D8FA",
"1 	c #D9D9F7",
"2 	c #DBDBF4",
"3 	c #35363C",
"4 	c #010103",
"5 	c #020208",
"6 	c #C4C3D5",
"7 	c #D8D8F9",
"8 	c #D8D7F8",
"9 	c #D8D7F9",
"0 	c #D7D7F8",
"a 	c #D8D7FA",
"b 	c #DAD9F7",
"c 	c #D8D8F5",
"d 	c #7B7A88",
"e 	c #3A3B43",
"f 	c #CFD0E6",
"g 	c #D2D4EC",
"h 	c #D2D4EB",
"i 	c #D5D5EA",
"j 	c #D4D4EB",
"k 	c #D4D3EC",
"l 	c #D8D7F5",
"m 	c #D8D9F9",
"n 	c #343439",
"o 	c #010003",
"p 	c #030307",
"q 	c #BCBCCB",
"r 	c #D3D3EB",
"s 	c #D5D4ED",
"t 	c #D5D3EC",
"u 	c #D3D3EC",
"v 	c #D7D6F4",
"w 	c #D9D7F9",
"x 	c #DAD8F9",
"y 	c #DADAF5",
"z 	c #DADAF7",
"A 	c #7E7D8A",
"B 	c #010001",
"C 	c #020001",
"D 	c #000102",
"E 	c #020101",
"F 	c #010002",
"G 	c #07060B",
"H 	c #26252C",
"I 	c #28282E",
"J 	c #28282D",
"K 	c #35353E",
"L 	c #D1D0EA",
"M 	c #D9D9F9",
"N 	c #34343B",
"O 	c #020203",
"P 	c #020202",
"Q 	c #222228",
"R 	c #28292F",
"S 	c #29292F",
"T 	c #28272E",
"U 	c #BBBCD0",
"V 	c #DAD8F8",
"W 	c #7D7D8A",
"X 	c #010101",
"Y 	c #040103",
"Z 	c #000002",
"` 	c #060204",
" .	c #040106",
"..	c #020002",
"+.	c #1F1F25",
"@.	c #D1D1E9",
"#.	c #D9D8F9",
"$.	c #DAD7FA",
"%.	c #DBD9F3",
"&.	c #35353D",
"*.	c #B9B9CE",
"=.	c #D8D9F7",
"-.	c #D7DAF9",
";.	c #D8D9F8",
">.	c #D9D8FA",
",.	c #D9DAF5",
"'.	c #7D7D89",
").	c #110306",
"!.	c #300102",
"~.	c #2C0403",
"{.	c #220303",
"].	c #050202",
"^.	c #050506",
"/.	c #1A1A1F",
"(.	c #17161D",
"_.	c #292831",
":.	c #D1D0E9",
"<.	c #D9D8F8",
"[.	c #DBDBF3",
"}.	c #3C3D45",
"|.	c #16161C",
"1.	c #15151B",
"2.	c #16171F",
"3.	c #BABAD0",
"4.	c #D8D9FA",
"5.	c #D9DAF4",
"6.	c #4F080A",
"7.	c #CE1117",
"8.	c #D80C14",
"9.	c #AC1319",
"0.	c #250101",
"a.	c #313138",
"b.	c #D1D0E5",
"c.	c #D3D2ED",
"d.	c #D9D9F5",
"e.	c #D8D9F5",
"f.	c #D1D2ED",
"g.	c #D1D1EC",
"h.	c #D3D2EC",
"i.	c #D1D1EB",
"j.	c #D2D2EC",
"k.	c #D2D2EA",
"l.	c #D2D1ED",
"m.	c #D1D1EA",
"n.	c #D7D8F4",
"o.	c #030203",
"p.	c #5E0607",
"q.	c #EB0809",
"r.	c #F30303",
"s.	c #C80A0E",
"t.	c #1E0102",
"u.	c #020206",
"v.	c #D7D7EF",
"w.	c #D8DAF7",
"x.	c #D6D9FB",
"y.	c #D7D9F8",
"z.	c #D6D9F9",
"A.	c #D7D8F8",
"B.	c #D5D9FB",
"C.	c #DCD8F6",
"D.	c #D7DAF6",
"E.	c #D8D9F3",
"F.	c #7E7E89",
"G.	c #030001",
"H.	c #030104",
"I.	c #0B0001",
"J.	c #270001",
"K.	c #220204",
"L.	c #630709",
"M.	c #EA080B",
"N.	c #F50304",
"O.	c #CA090F",
"P.	c #1D0002",
"Q.	c #020106",
"R.	c #000000",
"S.	c #33343C",
"T.	c #D4D5EE",
"U.	c #D6DAF8",
"V.	c #D6D9F6",
"W.	c #DCD9F6",
"X.	c #D5D8F8",
"Y.	c #D2D9F9",
"Z.	c #D1DAF7",
"`.	c #DAD9F1",
" +	c #D5DAFB",
".+	c #D9D7F7",
"++	c #D9D8F4",
"@+	c #7D7C89",
"#+	c #5E0A0C",
"$+	c #CA0F13",
"%+	c #D30D0E",
"&+	c #D90B0E",
"*+	c #F70204",
"=+	c #F70203",
"-+	c #CA0A0E",
";+	c #1D0102",
">+	c #3B3B42",
",+	c #D1CFE3",
"'+	c #D4D4EA",
")+	c #D3D2E9",
"!+	c #D7D8F5",
"~+	c #DBD8F6",
"{+	c #D7D8FB",
"]+	c #CBD9FA",
"^+	c #4D82CA",
"/+	c #3D7CD3",
"(+	c #3D7CD2",
"_+	c #3E7CD3",
":+	c #3F7BCB",
"<+	c #B5C9F1",
"[+	c #D7D9FA",
"}+	c #DAD8F7",
"|+	c #80808F",
"1+	c #45454D",
"2+	c #46464E",
"3+	c #212125",
"4+	c #030103",
"5+	c #030107",
"6+	c #6D0708",
"7+	c #F0050A",
"8+	c #F50202",
"9+	c #F70205",
"0+	c #F60205",
"a+	c #F70202",
"b+	c #1E0002",
"c+	c #040208",
"d+	c #3D3C45",
"e+	c #D7D4F0",
"f+	c #D9D7F8",
"g+	c #D8D6F9",
"h+	c #D7D6F8",
"i+	c #D7D8F6",
"j+	c #D8D8F6",
"k+	c #D6D8FB",
"l+	c #CDD7F7",
"m+	c #3478D0",
"n+	c #056FD6",
"o+	c #056FD5",
"p+	c #066FD5",
"q+	c #0E6DCE",
"r+	c #B2C8F1",
"s+	c #DBD7F6",
"t+	c #D7D7FA",
"u+	c #72717F",
"v+	c #040307",
"w+	c #010104",
"x+	c #000003",
"y+	c #020204",
"z+	c #010102",
"A+	c #140206",
"B+	c #250204",
"C+	c #200104",
"D+	c #760708",
"E+	c #ED0509",
"F+	c #F60202",
"G+	c #F60302",
"H+	c #C50B0E",
"I+	c #3A0202",
"J+	c #240305",
"K+	c #4D3A41",
"L+	c #E2D1E6",
"M+	c #E4D4EF",
"N+	c #E5D6EE",
"O+	c #E5D5ED",
"P+	c #E5D4EC",
"Q+	c #E5D3EC",
"R+	c #E4D5EC",
"S+	c #E9D1EA",
"T+	c #DBD2EE",
"U+	c #2F78D0",
"V+	c #026FD9",
"W+	c #016FD9",
"X+	c #0270D6",
"Y+	c #0C6ECA",
"Z+	c #AACBF2",
"`+	c #D0DBF3",
" @	c #CBDCFB",
".@	c #E1D6F0",
"+@	c #EAD2EB",
"@@	c #E7D1EA",
"#@	c #866C74",
"$@	c #230203",
"%@	c #230304",
"&@	c #240105",
"*@	c #250205",
"=@	c #0E0604",
"-@	c #5C0708",
";@	c #C30F11",
">@	c #CB0A0E",
",@	c #DA080D",
"'@	c #F60204",
")@	c #EC0507",
"!@	c #D00B0F",
"~@	c #CE0A0E",
"{@	c #D60F13",
"]@	c #E74048",
"^@	c #E63C45",
"/@	c #E63C43",
"(@	c #E53C45",
"_@	c #E23C47",
":@	c #E23C44",
"<@	c #C24757",
"[@	c #3B62B8",
"}@	c #036ED9",
"|@	c #0271D5",
"1@	c #0471D5",
"2@	c #2D79D9",
"3@	c #3C7BD1",
"4@	c #4976BE",
"5@	c #AA5575",
"6@	c #D93E45",
"7@	c #E04049",
"8@	c #D72228",
"9@	c #D00A0F",
"0@	c #D10A0F",
"a@	c #D00A0E",
"b@	c #CC0B0D",
"c@	c #C90C0E",
"d@	c #6D0D10",
"e@	c #040204",
"f@	c #010105",
"g@	c #020105",
"h@	c #730608",
"i@	c #EC0607",
"j@	c #EE0504",
"k@	c #F80202",
"l@	c #F50306",
"m@	c #F40307",
"n@	c #F80102",
"o@	c #F70208",
"p@	c #D4162C",
"q@	c #4161B7",
"r@	c #016FD8",
"s@	c #0170DA",
"t@	c #0270D8",
"u@	c #0470D2",
"v@	c #0370D3",
"w@	c #1D69C2",
"x@	c #B42D5C",
"y@	c #F20405",
"z@	c #F80206",
"A@	c #F90102",
"B@	c #F30407",
"C@	c #82090B",
"D@	c #020104",
"E@	c #660809",
"F@	c #D81014",
"G@	c #E20D11",
"H@	c #E8090C",
"I@	c #F40303",
"J@	c #F40308",
"K@	c #E10C0E",
"L@	c #E40B0E",
"M@	c #E20C0D",
"N@	c #E30A10",
"O@	c #E5070D",
"P@	c #E6070D",
"Q@	c #E5070E",
"R@	c #DF090F",
"S@	c #E10813",
"T@	c #C81939",
"U@	c #445DA9",
"V@	c #096BCD",
"W@	c #086BCD",
"X@	c #096BCC",
"Y@	c #096CCC",
"Z@	c #0B6CD1",
"`@	c #036ED8",
" #	c #036EDB",
".#	c #1E69CA",
"+#	c #A03767",
"@#	c #E00F22",
"##	c #DC1020",
"$#	c #DF0B13",
"%#	c #E3070D",
"&#	c #E1080D",
"*#	c #E5090C",
"=#	c #DC0F16",
"-#	c #770D10",
";#	c #230403",
">#	c #4C0506",
",#	c #4E0607",
"'#	c #8C0A0C",
")#	c #F4040D",
"!#	c #FA0102",
"~#	c #F80203",
"{#	c #D2080D",
"]#	c #570506",
"^#	c #500407",
"/#	c #66363E",
"(#	c #E6BFD3",
"_#	c #E6C3DE",
":#	c #E8C1DA",
"<#	c #E9C1D8",
"[#	c #E8C1D8",
"}#	c #ECC0D8",
"|#	c #E6C1D9",
"1#	c #E7C2D4",
"2#	c #CACCED",
"3#	c #C0D0F3",
"4#	c #C0D1F2",
"5#	c #C0D2F2",
"6#	c #C0D1F3",
"7#	c #B9D0F3",
"8#	c #4783CE",
"9#	c #0370D8",
"0#	c #066FD8",
"a#	c #3663B2",
"b#	c #4F5CA7",
"c#	c #4F5AAA",
"d#	c #C2AAC6",
"e#	c #E9C0D7",
"f#	c #E7C3D8",
"g#	c #8D6870",
"h#	c #4E0404",
"i#	c #4F0506",
"j#	c #250403",
"k#	c #010303",
"l#	c #030106",
"m#	c #020209",
"n#	c #640506",
"o#	c #ED060A",
"p#	c #F50203",
"q#	c #CD080F",
"r#	c #1D0104",
"s#	c #3D3D45",
"t#	c #D6D7ED",
"u#	c #D7D8F7",
"v#	c #DAD7F9",
"w#	c #D6D9FA",
"x#	c #DCD8F7",
"y#	c #D7D9FB",
"z#	c #D8D7FB",
"A#	c #D7D8FA",
"B#	c #D0DBF9",
"C#	c #4F87CE",
"D#	c #0271DA",
"E#	c #056ED8",
"F#	c #076DDC",
"G#	c #046EDF",
"H#	c #0A6DD0",
"I#	c #A5BCE8",
"J#	c #DBDAF8",
"K#	c #610709",
"L#	c #DE0E14",
"M#	c #E70809",
"N#	c #ED0507",
"O#	c #F60203",
"P#	c #050208",
"Q#	c #3C3C45",
"R#	c #D5D7ED",
"S#	c #D6DAF6",
"T#	c #D8DAF6",
"U#	c #D7D9F6",
"V#	c #D9D8F7",
"W#	c #D9D8F6",
"X#	c #D9D9F6",
"Y#	c #DAD7F7",
"Z#	c #D8D7F7",
"`#	c #D2DAF5",
" $	c #5187D0",
".$	c #0270DF",
"+$	c #046FD6",
"@$	c #0370D6",
"#$	c #A2C0EC",
"$$	c #D9DAF8",
"%$	c #7D7D8B",
"&$	c #1D0304",
"*$	c #4D0D10",
"=$	c #5A0708",
"-$	c #7F080A",
";$	c #EE0608",
">$	c #F40406",
",$	c #C9090F",
"'$	c #200103",
")$	c #040206",
"!$	c #151518",
"~$	c #5B5B63",
"{$	c #5E5E68",
"]$	c #64636E",
"^$	c #D9D8F0",
"/$	c #DBD7F7",
"($	c #DBD6F6",
"_$	c #DAD7F6",
":$	c #D2DAF8",
"<$	c #5287CC",
"[$	c #0470D9",
"}$	c #056DDA",
"|$	c #036FDD",
"1$	c #0370DA",
"2$	c #0A6ECD",
"3$	c #435B87",
"4$	c #60606A",
"5$	c #5F5F69",
"6$	c #2D2D32",
"7$	c #040403",
"8$	c #050406",
"9$	c #5F0709",
"0$	c #EB080C",
"a$	c #CB090D",
"b$	c #1C0103",
"c$	c #090209",
"d$	c #050409",
"e$	c #020102",
"f$	c #373840",
"g$	c #D6D6EE",
"h$	c #D7D7F5",
"i$	c #D6D8F4",
"j$	c #D6DAFA",
"k$	c #D7D8F9",
"l$	c #D3DCF6",
"m$	c #5087D0",
"n$	c #0370DE",
"o$	c #046FD5",
"p$	c #0271D7",
"q$	c #0370D4",
"r$	c #0A6EC9",
"s$	c #0B3665",
"t$	c #030206",
"u$	c #030302",
"v$	c #050103",
"w$	c #52070A",
"x$	c #DE0D12",
"y$	c #E40A0E",
"z$	c #BF0F17",
"A$	c #210203",
"B$	c #050304",
"C$	c #050303",
"D$	c #05040F",
"E$	c #010518",
"F$	c #343640",
"G$	c #D3D7F1",
"H$	c #D4DAFB",
"I$	c #D4DCFA",
"J$	c #D4DAF9",
"K$	c #D3DBF7",
"L$	c #D3DAF7",
"M$	c #D4DAF7",
"N$	c #C9DCFA",
"O$	c #5285C6",
"P$	c #0F6BCC",
"Q$	c #0C6CCF",
"R$	c #086DD3",
"S$	c #086DD4",
"T$	c #146CCC",
"U$	c #0A3567",
"V$	c #000004",
"W$	c #000007",
"X$	c #020205",
"Y$	c #1B0405",
"Z$	c #5D0506",
"`$	c #530404",
" %	c #4B0507",
".%	c #050104",
"+%	c #041834",
"@%	c #1A5BA2",
"#%	c #175EAB",
"$%	c #1B61B4",
"%%	c #5088D5",
"&%	c #5088D6",
"*%	c #5188D4",
"=%	c #5189DA",
"-%	c #5289D1",
";%	c #5289D0",
">%	c #5288D0",
",%	c #5289D2",
"'%	c #5288D2",
")%	c #5189D3",
"!%	c #5089D3",
"~%	c #5088D3",
"{%	c #5088D4",
"]%	c #5185CB",
"^%	c #99BDE9",
"/%	c #B3CCF1",
"(%	c #B5C8EF",
"_%	c #B1CBEF",
":%	c #B2CBF0",
"<%	c #B4C9EF",
"[%	c #BAC2DE",
"}%	c #C0C0D5",
"|%	c #C1C0D5",
"1%	c #C0BFD6",
"2%	c #C0BFD4",
"3%	c #7B7B86",
"4%	c #020207",
"5%	c #061B3A",
"6%	c #136BCA",
"7%	c #0570D5",
"8%	c #076DD7",
"9%	c #0370D9",
"0%	c #046ED6",
"a%	c #036FD9",
"b%	c #0270DA",
"c%	c #036FDC",
"d%	c #036EDC",
"e%	c #0371D8",
"f%	c #0270D7",
"g%	c #046FD8",
"h%	c #106DCD",
"i%	c #B2CAF3",
"j%	c #D8D8FA",
"k%	c #D9D7FA",
"l%	c #8A8A97",
"m%	c #03030F",
"n%	c #040414",
"o%	c #061E40",
"p%	c #1F69BC",
"q%	c #1070D3",
"r%	c #0E6CCE",
"s%	c #046FD4",
"t%	c #0271DB",
"u%	c #116DD1",
"v%	c #126ED4",
"w%	c #106FD4",
"x%	c #0D6ECF",
"y%	c #B0C9F1",
"z%	c #D4DBF2",
"A%	c #D2DBF6",
"B%	c #8A8B97",
"C%	c #051938",
"D%	c #1C5AA0",
"E%	c #145EB0",
"F%	c #1A5597",
"G%	c #102D58",
"H%	c #122F58",
"I%	c #0F3B6D",
"J%	c #116DC8",
"K%	c #0171DF",
"L%	c #1567BE",
"M%	c #10376C",
"N%	c #10315D",
"O%	c #0D315F",
"P%	c #1168C1",
"Q%	c #0170D9",
"R%	c #0170D7",
"S%	c #0170D8",
"T%	c #4C88D1",
"U%	c #588ED6",
"V%	c #5D8DCE",
"W%	c #B9C8EE",
"X%	c #D6DAF7",
"Y%	c #8C8B9B",
"Z%	c #052046",
"`%	c #116CC9",
" &	c #1163B5",
".&	c #04081D",
"+&	c #05193A",
"@&	c #156BC5",
"#&	c #026FD8",
"$&	c #1267C1",
"%&	c #02102D",
"&&	c #020E27",
"*&	c #1064BE",
"=&	c #016FDA",
"-&	c #066ED1",
";&	c #B1C4ED",
">&	c #D3D9FA",
",&	c #8B8B98",
"'&	c #0F64B6",
")&	c #02071B",
"!&	c #05193B",
"~&	c #1268C2",
"{&	c #02102C",
"]&	c #056FD2",
"^&	c #B2C4EC",
"/&	c #D9D8F3",
"(&	c #8A8A98",
"_&	c #052047",
":&	c #1065B6",
"<&	c #03071B",
"[&	c #146AC5",
"}&	c #1168C5",
"|&	c #02112D",
"1&	c #1164BE",
"2&	c #B3C6ED",
"3&	c #D2DAFB",
"4&	c #D9D7F4",
"5&	c #8B8B99",
"6&	c #052249",
"7&	c #126CCA",
"8&	c #1164B7",
"9&	c #03071C",
"0&	c #061A39",
"a&	c #146AC9",
"b&	c #036FD8",
"c&	c #1265BE",
"d&	c #B1C5ED",
"e&	c #D6D9F7",
"f&	c #8B8B9A",
"g&	c #062146",
"h&	c #186BC4",
"i&	c #056ED7",
"j&	c #1861AD",
"k&	c #050820",
"l&	c #03030A",
"m&	c #071A35",
"n&	c #1969C5",
"o&	c #0D6DCE",
"p&	c #1866BD",
"q&	c #04112D",
"r&	c #020E29",
"s&	c #1365BA",
"t&	c #096ED0",
"u&	c #0A6ED0",
"v&	c #0B6DD1",
"w&	c #0B6DD3",
"x&	c #0B6DD8",
"y&	c #0A6DD6",
"z&	c #0A6ED2",
"A&	c #096ED2",
"B&	c #0F6BC8",
"C&	c #B1C5E9",
"D&	c #D9D9F4",
"E&	c #8D8C9B",
"F&	c #3A3E4F",
"G&	c #A7C1E7",
"H&	c #A8C1EC",
"I&	c #AABFE4",
"J&	c #B3B4CB",
"K&	c #B3B4C4",
"L&	c #B0B5CC",
"M&	c #AAC2E7",
"N&	c #A4C3EC",
"O&	c #A9C2E7",
"P&	c #B2B5CD",
"Q&	c #B1B6CA",
"R&	c #B4B6C5",
"S&	c #A9C1E5",
"T&	c #A5C1EA",
"U&	c #A6C2EA",
"V&	c #A7C2EA",
"W&	c #A7C3EB",
"X&	c #A8C4EC",
"Y&	c #A8C3EC",
"Z&	c #A6C3EB",
"`&	c #A6C2EB",
" *	c #A5C1EB",
".*	c #A4C2E9",
"+*	c #C8D4F4",
"@*	c #D8DAF9",
"#*	c #D6D9F8",
"$*	c #8C8B9A",
"%*	c #4A4951",
"&*	c #D8D8EC",
"**	c #DAD9EF",
"=*	c #DAD8F0",
"-*	c #D7D7F1",
";*	c #D6D7F7",
">*	c #D9D9F0",
",*	c #D5D9F8",
"'*	c #D5D8F3",
")*	c #D8D8F1",
"!*	c #D8D9F4",
"~*	c #D7D9F3",
"{*	c #D8D8F2",
"]*	c #D8D7F6",
"^*	c #D8D6F5",
"/*	c #D9D6F3",
"(*	c #DAD7F3",
"_*	c #D9D7F6",
":*	c #DBD6F8",
"<*	c #8A899A",
"[*	c #4A4650",
"}*	c #DBDAF3",
"|*	c #D9DAFA",
"1*	c #DAD9F4",
"2*	c #D9DBF7",
"3*	c #D7DAF7",
"4*	c #D5D9FA",
"5*	c #DAD9F8",
"6*	c #D8D8F4",
"7*	c #8D8C96",
"8*	c #242329",
"9*	c #7B7A87",
"0*	c #7D7C8A",
"a*	c #7A7B87",
"b*	c #80808E",
"c*	c #DAD7F2",
"d*	c #9E9EB1",
"e*	c #7A7A87",
"f*	c #797983",
"g*	c #49494E",
"h*	c #D9D7EE",
"i*	c #D6DAF9",
"j*	c #35363D",
"k*	c #D8D8EE",
"l*	c #D7D7F7",
"m*	c #DADBF3",
"n*	c #7B7C86",
"o*	c #1D1D21",
"p*	c #7E7C8A",
"q*	c #7E7D8D",
"r*	c #7D7D8D",
"s*	c #7F7E8D",
"t*	c #807E8D",
"u*	c #818090",
"v*	c #D2D0EC",
"w*	c #DCDBF7",
"x*	c #9A99AC",
"y*	c #808090",
"z*	c #80808D",
"A*	c #434349",
"B*	c #181820",
"C*	c #CDCAE5",
"D*	c #D8DAF8",
"E*	c #757583",
"F*	c #CDCAE8",
"G*	c #747481",
"H*	c #17171E",
"I*	c #CECBE5",
"J*	c #9090A2",
"K*	c #7F7E8E",
"L*	c #7F7F8E",
"M*	c #7F7F8D",
"N*	c #424048",
"O*	c #17171F",
"P*	c #CECCE6",
"Q*	c #53535D",
"R*	c #1A1A21",
"S*	c #CECBE2",
"T*	c #DCDBF3",
"U*	c #51525A",
"V*	c #0C0C11",
"W*	c #82828B",
"X*	c #8B8D97",
"Y*	c #8A8C97",
"Z*	c #8B8C98",
"`*	c #323237",
"                            . + @ # $ % & * = - - - ; > , ' ) ! ~ { { ] ^ = / - / ( _               ",
"                          : < [ } | - / / / 1 = 1 / 2 3 4 5 6 * 7 8 9 7 0 a b 8 c 1 d               ",
"                            e f g h i j k l = = = m 2 n o p q r s t k u v w = x y z A               ",
"              B C D E     F G H I J J I K L = = M x & N O P Q R J J S T U - 1 V ^ 1 W               ",
"              X Y Z `  ...Z Z           +.@.= M #.$.%.&.              D *.=.-.;.>.,.'.              ",
"              F ).!.~.{.].  B     ^./.(._.:.= M M <.[.}.|.1.1.1.1.1.|.2.3.= 4.M >.5.'.              ",
"              X 6.7.8.9.0., ..  X a.b.u c.d.= M M ;.e.f.g.h.i.j.g.k.l.m.n.;.$ = >.5.'.              ",
"        Z F F o.p.q.r.s.t.u.4 o Z N v.7 7 b w.x./ =.} y.7 m 7 7 z.A.B.C.= = D.e.- E.F.              ",
"      G.H.I.J.K.L.M.N.O.P.Q.F R.R.S.T.} = U.V.W.X.Y.Y.Y.Y.Y.Y.Y.Z.`. +m m ;.=.c .+++@+              ",
"        4 #+$+%+&+*+=+-+;+ .>+,+'+)+!+A./ ~+{+]+^+/+/+/+/+/+(+_+:+<+[+}+M - ;.|+1+2+3+P             ",
"    Z 4+5+6+7+8+9+0+a+-+b+c+d+e+f+g+h+8 i+j+k+l+m+n+n+n+o+n+o+p+q+r+s+t+= - y.u+p v+w+x+y+F B       ",
"B z+A+B+C+D+E+F+8+8+G+H+I+J+K+L+M+N+O+P+Q+R+S+T+U+V+W+W+W+W+W+X+Y+Z+`+ @.@+@@@#@$@%@{.&@*@=@Y       ",
"Y Q.-@;@>@,@'@8+8+8+a+)@!@~@{@]@^@/@(@(@(@_@:@<@[@}@W+W+W+W+W+|@1@2@3@4@5@6@7@8@9@0@a@b@c@d@e@      ",
"f@g@h@i@j@a+r.8+8+8+8+r.a+k@l@m@0+n@*+*+=+o@F+p@q@r@W+W+W+W+s@t@u@|@v@w@x@y@z@a+A@n@n@a+B@C@D@      ",
"o e@E@F@G@H@I@8+a+n@=+J@K@L@M@N@O@P@O@O@Q@R@S@T@U@V@W@W@W@X@V@Y@Z@`@ #.#+#@###$#%#&#M@*#=#-#4+      ",
"Q.Z ;#>#,#'#)#A@!#A@~#{#]#^#/#(#_#:#<#[#[#}#|#1#2#3#3#4#4#5#6#6#7#8#9#0#a#b#c#d#e#f#g#h#i#j#k#      ",
"x+C l#m#c+n#o#p#'@F+n@q#r#c+s#t#u#f+#.v#w <.w#x#y.y#y#y#{+z#z#A#B#C#D#E#F#G#H#I#J#c A z+  , D@      ",
"..B 4+4 c+K#L#M#N#O#a+O.t.P#Q#R#S#$ T#U#D.V#W#[+X#}+Y#Y#<.- - Z#`# $.$+$@$9#Y@#$X#$$%$f@w+Z         ",
"      z+Z &$*$=$-$;$>$,$'$)$!$~${$]$^$9 x f+Y#/$($/$/$Y#Y#Y#Y#_$:$<$[$}$|$1$2$3$4$5$6$7$            ",
"      Z Z X G.8$9$0$~#a$b$c$d$w+e$f$g$h$i$z.z.j$w#w#z.z.z.k$k$k$l$m$n$o$p$q$r$s$y+t$u$E   X B       ",
"            l#v$w$x$y$z$A$B$C$D$E$F$G$H$I$J$K$K$K$K$L$K$L$M$L$L$N$O$P$Q$R$S$T$U$x+V$V$W$x+X$4       ",
"              ..Y$Z$`$ %.%Y +%@%#%$%%%&%*%=%-%;%>%,%,%'%)%!%~%{%]%^%/%(%_%:%<%[%}%|%|%1%2%3%Z       ",
"                  B 4+w+Z 4%5%6%7%8%9%0%a%b%o$c%d%e%f%t@t@t@0%g%h%i%j%k%% u#A#$ X#X#* d.U#l%Z       ",
"R.                    f@m%n%o%p%q%r%s%t%o+u%v%w%n+W+W+W+W+W+W+V+x%y%z%A%V.#.- /$$.k%#.= !+B%        ",
"R.                  e$C%D%E%F%G%H%I%J%K%L%M%N%O%P%b%s@s@Q%R%R%S%+$T%U%V%W%v# +* z z ^ = X%Y%Z       ",
"R.                    Z%`%a% &.&H.+&@&#&$&%&w+&&*&W+W+W+W+r@r@W+Q%f%=&-&;&>&c m = = = M X%,&        ",
"R.R.                  Z%`%`@'&)&4 !&@&`@~&{&w+&&*&W+W+W+W+W+W+W+W+W+W+]&^&>&/&4.M M = M X%(&Z       ",
"R.R.                  _&`%`@:&<&w+!&[&#&}&|&w+&&1&W+W+W+W+W+W+W+W+W+W+]&2&3&4&4.M = = M X%5&Z       ",
"R.R.                B 6&7&`@8&9&D@0&a&b&}&|&w+&&c&t@R%R%R%X+X+X+r@W+W+]&d&J$e&= M = M M X%f&        ",
"R.R.                G.g&h&i&j&k&l&m&n&o&p&q&D r&s&t&u&v&w&x&y&x&z&z&A&B&C&D&H$* = M = = X%E&Z       ",
"R.R.                e$F&G&H&I&J&K&L&M&N&O&P&Q&R&S&T&U&V&W&X&Y&W&Z&`& *.*+*{ @*1 M = = V #*$*Z       ",
"R.R.R.              4 %*&***=*w#-*;*>*d.^$,*| '*)*!*~*{*]*8 8 8 ^*/*/*(*7 _*:*#.M = M M e&<*Z       ",
"R.R.R.R.            Z [*}*|*1*2*D&!+1 9 ,*3*m 4*m 4.m m m / 1 / M 7 7 #.<.<.5*M M a 6*y ! 7*o       ",
"R.R.                z+8*9*0*9*_ a*b*c*<.[+y.m $$m = M = M = M M M = M = M M M >.M / d*e*f*g*,       ",
"  R.4                             N h*Z#x.i*;.y.=.= = M = M = = M = M = M = M #.1 !*W               ",
"Z B w+                            j*k*c | A.V#V#l*M = = = = = = M M = M = = 1 X#6*m*n*P             ",
"R.                                o*p*q*r*s*t*u*v*M M = m M -.=  +m M = b 8 w*x*y*z*A*              ",
"                                  X P X       B*C*= = = m D*D*-.z.1 - 5*#.k%5*E*g@D X               ",
"                                              B*F*M = M = = $$1 e&= <.* 1 7 ^ G*Z                   ",
"                                              H*I*>.>.>.>.M M M z J*K*L*M*|+b*N*P                   ",
"                                              O*P*y y y y y y y W.Q*  Z       P P                   ",
"                                              R*S*d.X#X#X#X#X#X#T*U*                                ",
"                                              V*W*X*Y*Y*Y*Y*Y*Y*Z*`*                                ",
"                                                                                                    ",
"                                                                                                    ",
"                                                                                                    ",
"                                                                                                    ",
"                                                                                                    ",
"                                                                                                    ",
"                                                                                                    "};
