/* XPM */
static char * smerf_s_xpm[] = {
"50 50 828 2",
"  	c #000001",
". 	c #323237",
"+ 	c #8B8C98",
"@ 	c #8A8C97",
"# 	c #8B8D97",
"$ 	c #82828B",
"% 	c #0C0C11",
"& 	c #51525A",
"* 	c #DCDBF3",
"= 	c #D9D9F6",
"- 	c #D9D9F5",
"; 	c #CECBE2",
"> 	c #1A1A21",
", 	c #020202",
"' 	c #000002",
") 	c #53535D",
"! 	c #DCD9F6",
"~ 	c #DADAF5",
"{ 	c #CECCE6",
"] 	c #17171F",
"^ 	c #424048",
"/ 	c #80808E",
"( 	c #80808F",
"_ 	c #7F7F8D",
": 	c #7F7F8E",
"< 	c #7F7E8E",
"[ 	c #9090A2",
"} 	c #DADAF7",
"| 	c #D9D9F9",
"1 	c #D9D8FA",
"2 	c #CECBE5",
"3 	c #17171E",
"4 	c #747481",
"5 	c #DADAF6",
"6 	c #D8D8F9",
"7 	c #D9D9F7",
"8 	c #DAD9F6",
"9 	c #D9D8F8",
"0 	c #D9D9F8",
"a 	c #D6D9F7",
"b 	c #D9DAF8",
"c 	c #CDCAE8",
"d 	c #181820",
"e 	c #010101",
"f 	c #000102",
"g 	c #020105",
"h 	c #757583",
"i 	c #DAD9F8",
"j 	c #D9D7FA",
"k 	c #D9D8F9",
"l 	c #D8D8F8",
"m 	c #D6D9F9",
"n 	c #D7DAF9",
"o 	c #D8DAF8",
"p 	c #D8D9F9",
"q 	c #CDCAE5",
"r 	c #434349",
"s 	c #80808D",
"t 	c #808090",
"u 	c #9A99AC",
"v 	c #DCDBF7",
"w 	c #D8D7F8",
"x 	c #DAD9F7",
"y 	c #D5DAFB",
"z 	c #D2D0EC",
"A 	c #818090",
"B 	c #807E8D",
"C 	c #7F7E8D",
"D 	c #7D7D8D",
"E 	c #7E7D8D",
"F 	c #7E7C8A",
"G 	c #1D1D21",
"H 	c #000000",
"I 	c #7B7C86",
"J 	c #DADBF3",
"K 	c #D8D8F4",
"L 	c #D7D7F7",
"M 	c #D9D8F7",
"N 	c #D7D8F8",
"O 	c #D6D8FA",
"P 	c #D8D8F5",
"Q 	c #D8D8EE",
"R 	c #35363D",
"S 	c #010104",
"T 	c #010001",
"U 	c #7D7D8A",
"V 	c #D8D9F4",
"W 	c #D8D9F7",
"X 	c #D7D9F8",
"Y 	c #D8D9F8",
"Z 	c #D6DAF9",
"` 	c #D6D9FB",
" .	c #D8D7F7",
"..	c #D9D7EE",
"+.	c #34343B",
"@.	c #010103",
"#.	c #020103",
"$.	c #49494E",
"%.	c #797983",
"&.	c #7A7A87",
"*.	c #9E9EB1",
"=.	c #D8D8F7",
"-.	c #D7D9FA",
";.	c #DAD7F2",
">.	c #7A7B87",
",.	c #7B7B87",
"'.	c #7B7A87",
").	c #7D7C8A",
"!.	c #242329",
"~.	c #010102",
"{.	c #010003",
"].	c #8D8C96",
"^.	c #DADAF0",
"/.	c #D8D7FA",
"(.	c #D8D9FA",
"_.	c #D5D9FA",
":.	c #D7DAF7",
"<.	c #D5D9F8",
"[.	c #D8D7F9",
"}.	c #D7D8F5",
"|.	c #D9D9F4",
"1.	c #D9DBF7",
"2.	c #DAD9F4",
"3.	c #D9DAFA",
"4.	c #DBDAF3",
"5.	c #4A4650",
"6.	c #8A899A",
"7.	c #DBD6F8",
"8.	c #D9D7F6",
"9.	c #DAD7F3",
"0.	c #D9D6F3",
"a.	c #D8D6F5",
"b.	c #D8D7F6",
"c.	c #D8D8F2",
"d.	c #D7D9F3",
"e.	c #D8D8F1",
"f.	c #D5D8F3",
"g.	c #D9D8F0",
"h.	c #D9D9F0",
"i.	c #D6D7F7",
"j.	c #D7D7F1",
"k.	c #D6D9FA",
"l.	c #DAD8F0",
"m.	c #DAD9EF",
"n.	c #D8D8EC",
"o.	c #4A4951",
"p.	c #8C8B9A",
"q.	c #D6D9F8",
"r.	c #DAD8F8",
"s.	c #D8DAF9",
"t.	c #D9D9F2",
"u.	c #C8D4F4",
"v.	c #A4C2E9",
"w.	c #A5C1EB",
"x.	c #A6C2EB",
"y.	c #A6C3EB",
"z.	c #A7C3EB",
"A.	c #A8C3EC",
"B.	c #A8C4EC",
"C.	c #A7C2EA",
"D.	c #A6C2EA",
"E.	c #A5C1EA",
"F.	c #A9C1E5",
"G.	c #B4B6C5",
"H.	c #B1B6CA",
"I.	c #B2B5CD",
"J.	c #A9C2E7",
"K.	c #A4C3EC",
"L.	c #AAC2E7",
"M.	c #B0B5CC",
"N.	c #B3B4C4",
"O.	c #B3B4CB",
"P.	c #AABFE4",
"Q.	c #A8C1EC",
"R.	c #A7C1E7",
"S.	c #3A3E4F",
"T.	c #020102",
"U.	c #8D8C9B",
"V.	c #D6DAF7",
"W.	c #D4DAFB",
"X.	c #B1C5E9",
"Y.	c #0F6BC8",
"Z.	c #096ED2",
"`.	c #0A6ED2",
" +	c #0B6DD8",
".+	c #0A6DD6",
"++	c #0B6DD3",
"@+	c #0B6DD1",
"#+	c #0A6ED0",
"$+	c #096ED0",
"%+	c #1365BA",
"&+	c #020E29",
"*+	c #04112D",
"=+	c #1866BD",
"-+	c #0D6DCE",
";+	c #1969C5",
">+	c #071A35",
",+	c #03030A",
"'+	c #050820",
")+	c #1861AD",
"!+	c #056ED7",
"~+	c #186BC4",
"{+	c #062146",
"]+	c #030001",
"^+	c #8B8B9A",
"/+	c #D4DAF9",
"(+	c #B1C5ED",
"_+	c #056FD2",
":+	c #016FD9",
"<+	c #016FD8",
"[+	c #0270D6",
"}+	c #0170D7",
"|+	c #0270D8",
"1+	c #1265BE",
"2+	c #020E27",
"3+	c #02112D",
"4+	c #1168C5",
"5+	c #036FD8",
"6+	c #146AC9",
"7+	c #061A39",
"8+	c #020104",
"9+	c #03071C",
"0+	c #1164B7",
"a+	c #036ED8",
"b+	c #126CCA",
"c+	c #052249",
"d+	c #8B8B99",
"e+	c #D9D7F4",
"f+	c #D2DAFB",
"g+	c #B3C6ED",
"h+	c #1164BE",
"i+	c #026FD8",
"j+	c #146AC5",
"k+	c #05193B",
"l+	c #03071B",
"m+	c #1065B6",
"n+	c #116CC9",
"o+	c #052047",
"p+	c #8A8A98",
"q+	c #D9D8F3",
"r+	c #D3D9FA",
"s+	c #B2C4EC",
"t+	c #1064BE",
"u+	c #02102C",
"v+	c #1268C2",
"w+	c #156BC5",
"x+	c #02071B",
"y+	c #0F64B6",
"z+	c #052046",
"A+	c #8B8B98",
"B+	c #B1C4ED",
"C+	c #066ED1",
"D+	c #016FDA",
"E+	c #0270D7",
"F+	c #0170D9",
"G+	c #02102D",
"H+	c #1267C1",
"I+	c #05193A",
"J+	c #030104",
"K+	c #04081D",
"L+	c #1163B5",
"M+	c #036FD9",
"N+	c #8C8B9B",
"O+	c #DAD7F9",
"P+	c #B9C8EE",
"Q+	c #5D8DCE",
"R+	c #588ED6",
"S+	c #4C88D1",
"T+	c #046FD6",
"U+	c #0170D8",
"V+	c #0170DA",
"W+	c #0270DA",
"X+	c #1168C1",
"Y+	c #0D315F",
"Z+	c #10315D",
"`+	c #10376C",
" @	c #1567BE",
".@	c #0171DF",
"+@	c #116DC8",
"@@	c #0F3B6D",
"#@	c #122F58",
"$@	c #102D58",
"%@	c #1A5597",
"&@	c #145EB0",
"*@	c #1C5AA0",
"=@	c #051938",
"-@	c #8A8B97",
";@	c #DAD7FA",
">@	c #DBD7F7",
",@	c #D6D9F6",
"'@	c #D2DBF6",
")@	c #D4DBF2",
"!@	c #B0C9F1",
"~@	c #0D6ECF",
"{@	c #026FD9",
"]@	c #056FD6",
"^@	c #106FD4",
"/@	c #126ED4",
"(@	c #116DD1",
"_@	c #056FD5",
":@	c #0271DB",
"<@	c #046FD4",
"[@	c #0E6CCE",
"}@	c #1070D3",
"|@	c #1F69BC",
"1@	c #061E40",
"2@	c #040414",
"3@	c #03030F",
"4@	c #010105",
"5@	c #8A8A97",
"6@	c #D7D9F6",
"7@	c #D9DAF6",
"8@	c #D7D8FA",
"9@	c #D7D8F7",
"0@	c #D9DAF3",
"a@	c #D8D8FA",
"b@	c #B2CAF3",
"c@	c #106DCD",
"d@	c #046FD8",
"e@	c #046ED6",
"f@	c #0371D8",
"g@	c #036EDC",
"h@	c #036FDC",
"i@	c #046FD5",
"j@	c #0370D9",
"k@	c #076DD7",
"l@	c #0570D5",
"m@	c #136BCA",
"n@	c #061B3A",
"o@	c #020207",
"p@	c #030103",
"q@	c #7B7B86",
"r@	c #C0BFD4",
"s@	c #C0BFD6",
"t@	c #C1C0D5",
"u@	c #C0C0D5",
"v@	c #BAC2DE",
"w@	c #B4C9EF",
"x@	c #B2CBF0",
"y@	c #B1CBEF",
"z@	c #B5C8EF",
"A@	c #B3CCF1",
"B@	c #99BDE9",
"C@	c #5185CB",
"D@	c #5088D4",
"E@	c #5088D3",
"F@	c #5089D3",
"G@	c #5189D3",
"H@	c #5288D2",
"I@	c #5289D2",
"J@	c #5288D0",
"K@	c #5289D0",
"L@	c #5289D1",
"M@	c #5189DA",
"N@	c #5188D4",
"O@	c #5088D6",
"P@	c #5088D5",
"Q@	c #1B61B4",
"R@	c #175EAB",
"S@	c #1A5BA2",
"T@	c #041834",
"U@	c #040103",
"V@	c #050104",
"W@	c #4B0507",
"X@	c #530404",
"Y@	c #5D0506",
"Z@	c #1B0405",
"`@	c #020002",
" #	c #020205",
".#	c #000003",
"+#	c #000007",
"@#	c #000004",
"##	c #0A3567",
"$#	c #146CCC",
"%#	c #086DD4",
"&#	c #086DD3",
"*#	c #0C6CCF",
"=#	c #0F6BCC",
"-#	c #5285C6",
";#	c #C9DCFA",
">#	c #D3DAF7",
",#	c #D4DAF7",
"'#	c #D3DBF7",
")#	c #D4DCFA",
"!#	c #D3D7F1",
"~#	c #343640",
"{#	c #010518",
"]#	c #05040F",
"^#	c #050303",
"/#	c #050304",
"(#	c #210203",
"_#	c #BF0F17",
":#	c #E40A0E",
"<#	c #DE0D12",
"[#	c #52070A",
"}#	c #050103",
"|#	c #030106",
"1#	c #020101",
"2#	c #030302",
"3#	c #030206",
"4#	c #020204",
"5#	c #0B3665",
"6#	c #0A6EC9",
"7#	c #0370D4",
"8#	c #0271D7",
"9#	c #0370DE",
"0#	c #5087D0",
"a#	c #D3DCF6",
"b#	c #D7D8F9",
"c#	c #D6DAFA",
"d#	c #D6D8F4",
"e#	c #D7D7F5",
"f#	c #D6D6EE",
"g#	c #373840",
"h#	c #050409",
"i#	c #090209",
"j#	c #1C0103",
"k#	c #CB090D",
"l#	c #F80203",
"m#	c #EB080C",
"n#	c #5F0709",
"o#	c #050406",
"p#	c #040403",
"q#	c #2D2D32",
"r#	c #5F5F69",
"s#	c #60606A",
"t#	c #435B87",
"u#	c #0A6ECD",
"v#	c #0370DA",
"w#	c #036FDD",
"x#	c #056DDA",
"y#	c #0470D9",
"z#	c #5287CC",
"A#	c #D2DAF8",
"B#	c #DAD7F6",
"C#	c #DAD7F7",
"D#	c #DBD6F6",
"E#	c #D9D7F8",
"F#	c #DAD8F9",
"G#	c #64636E",
"H#	c #5E5E68",
"I#	c #5B5B63",
"J#	c #151518",
"K#	c #040206",
"L#	c #200103",
"M#	c #C9090F",
"N#	c #F40406",
"O#	c #EE0608",
"P#	c #7F080A",
"Q#	c #5A0708",
"R#	c #4D0D10",
"S#	c #1D0304",
"T#	c #7D7D8B",
"U#	c #A2C0EC",
"V#	c #096CCC",
"W#	c #0370D8",
"X#	c #0370D6",
"Y#	c #0270DF",
"Z#	c #5187D0",
"`#	c #D2DAF5",
" $	c #DAD8F7",
".$	c #D9D8F6",
"+$	c #D7DAF6",
"@$	c #D8DAF6",
"#$	c #D6DAF6",
"$$	c #D5D7ED",
"%$	c #3C3C45",
"&$	c #050208",
"*$	c #1E0102",
"=$	c #CA090F",
"-$	c #F70202",
";$	c #F60203",
">$	c #ED0507",
",$	c #E70809",
"'$	c #DE0E14",
")$	c #610709",
"!$	c #040208",
"~$	c #7E7D8A",
"{$	c #DBDAF8",
"]$	c #A5BCE8",
"^$	c #0A6DD0",
"/$	c #046EDF",
"($	c #076DDC",
"_$	c #056ED8",
":$	c #0271DA",
"<$	c #4F87CE",
"[$	c #D0DBF9",
"}$	c #D8D7FB",
"|$	c #D7D8FB",
"1$	c #D7D9FB",
"2$	c #DCD8F7",
"3$	c #D9D7F9",
"4$	c #D6D7ED",
"5$	c #3D3D45",
"6$	c #1D0104",
"7$	c #CD080F",
"8$	c #F80102",
"9$	c #F60202",
"0$	c #F60204",
"a$	c #F50203",
"b$	c #ED060A",
"c$	c #640506",
"d$	c #020209",
"e$	c #020001",
"f$	c #010303",
"g$	c #250403",
"h$	c #4F0506",
"i$	c #4E0404",
"j$	c #8D6870",
"k$	c #E7C3D8",
"l$	c #E9C0D7",
"m$	c #C2AAC6",
"n$	c #4F5AAA",
"o$	c #4F5CA7",
"p$	c #3663B2",
"q$	c #066FD8",
"r$	c #4783CE",
"s$	c #B9D0F3",
"t$	c #C0D1F3",
"u$	c #C0D2F2",
"v$	c #C0D1F2",
"w$	c #C0D0F3",
"x$	c #CACCED",
"y$	c #E7C2D4",
"z$	c #E6C1D9",
"A$	c #ECC0D8",
"B$	c #E8C1D8",
"C$	c #E9C1D8",
"D$	c #E8C1DA",
"E$	c #E6C3DE",
"F$	c #E6BFD3",
"G$	c #66363E",
"H$	c #500407",
"I$	c #570506",
"J$	c #D2080D",
"K$	c #F90102",
"L$	c #FA0102",
"M$	c #F4040D",
"N$	c #8C0A0C",
"O$	c #4E0607",
"P$	c #4C0506",
"Q$	c #230403",
"R$	c #020106",
"S$	c #770D10",
"T$	c #DC0F16",
"U$	c #E5090C",
"V$	c #E20C0D",
"W$	c #E1080D",
"X$	c #E3070D",
"Y$	c #DF0B13",
"Z$	c #DC1020",
"`$	c #E00F22",
" %	c #A03767",
".%	c #1E69CA",
"+%	c #036EDB",
"@%	c #0B6CD1",
"#%	c #096BCD",
"$%	c #096BCC",
"%%	c #086BCD",
"&%	c #445DA9",
"*%	c #C81939",
"=%	c #E10813",
"-%	c #DF090F",
";%	c #E5070E",
">%	c #E5070D",
",%	c #E6070D",
"'%	c #E30A10",
")%	c #E40B0E",
"!%	c #E10C0E",
"~%	c #F40308",
"{%	c #F70203",
"]%	c #F50202",
"^%	c #F40303",
"/%	c #E8090C",
"(%	c #E20D11",
"_%	c #D81014",
":%	c #660809",
"<%	c #040204",
"[%	c #82090B",
"}%	c #F30407",
"|%	c #F80206",
"1%	c #F20405",
"2%	c #B42D5C",
"3%	c #1D69C2",
"4%	c #0370D3",
"5%	c #0271D5",
"6%	c #0470D2",
"7%	c #4161B7",
"8%	c #D4162C",
"9%	c #F70208",
"0%	c #F70204",
"a%	c #F60205",
"b%	c #F40307",
"c%	c #F50306",
"d%	c #F80202",
"e%	c #F30303",
"f%	c #EE0504",
"g%	c #EC0607",
"h%	c #730608",
"i%	c #6D0D10",
"j%	c #C90C0E",
"k%	c #CC0B0D",
"l%	c #D00A0E",
"m%	c #D10A0F",
"n%	c #D00A0F",
"o%	c #D72228",
"p%	c #E04049",
"q%	c #D93E45",
"r%	c #AA5575",
"s%	c #4976BE",
"t%	c #3C7BD1",
"u%	c #2D79D9",
"v%	c #0471D5",
"w%	c #036ED9",
"x%	c #3B62B8",
"y%	c #C24757",
"z%	c #E23C44",
"A%	c #E23C47",
"B%	c #E53C45",
"C%	c #E63C43",
"D%	c #E63C45",
"E%	c #E74048",
"F%	c #D60F13",
"G%	c #CE0A0E",
"H%	c #D00B0F",
"I%	c #EC0507",
"J%	c #DA080D",
"K%	c #CB0A0E",
"L%	c #C30F11",
"M%	c #5C0708",
"N%	c #0E0604",
"O%	c #250205",
"P%	c #240105",
"Q%	c #220303",
"R%	c #230304",
"S%	c #230203",
"T%	c #866C74",
"U%	c #E7D1EA",
"V%	c #EAD2EB",
"W%	c #E1D6F0",
"X%	c #CBDCFB",
"Y%	c #D0DBF3",
"Z%	c #AACBF2",
"`%	c #0C6ECA",
" &	c #2F78D0",
".&	c #DBD2EE",
"+&	c #E9D1EA",
"@&	c #E4D5EC",
"#&	c #E5D3EC",
"$&	c #E5D4EC",
"%&	c #E5D5ED",
"&&	c #E5D6EE",
"*&	c #E4D4EF",
"=&	c #E2D1E6",
"-&	c #4D3A41",
";&	c #240305",
">&	c #3A0202",
",&	c #C50B0E",
"'&	c #F60302",
")&	c #ED0509",
"!&	c #760708",
"~&	c #200104",
"{&	c #250204",
"]&	c #140206",
"^&	c #010002",
"/&	c #040307",
"(&	c #030307",
"_&	c #72717F",
":&	c #D7D7FA",
"<&	c #DBD7F6",
"[&	c #B2C8F1",
"}&	c #0E6DCE",
"|&	c #066FD5",
"1&	c #3478D0",
"2&	c #CDD7F7",
"3&	c #D6D8FB",
"4&	c #D8D8F6",
"5&	c #D7D8F6",
"6&	c #D7D6F8",
"7&	c #D8D6F9",
"8&	c #D7D4F0",
"9&	c #3D3C45",
"0&	c #1E0002",
"a&	c #CA0A0E",
"b&	c #F70205",
"c&	c #F0050A",
"d&	c #6D0708",
"e&	c #030107",
"f&	c #212125",
"g&	c #46464E",
"h&	c #45454D",
"i&	c #B5C9F1",
"j&	c #3F7BCB",
"k&	c #3E7CD3",
"l&	c #3D7CD2",
"m&	c #3D7CD3",
"n&	c #4D82CA",
"o&	c #CBD9FA",
"p&	c #DBD8F6",
"q&	c #D3D2E9",
"r&	c #D4D4EA",
"s&	c #D1CFE3",
"t&	c #3B3B42",
"u&	c #040106",
"v&	c #1D0102",
"w&	c #D90B0E",
"x&	c #D30D0E",
"y&	c #CA0F13",
"z&	c #5E0A0C",
"A&	c #7D7C89",
"B&	c #D9D8F4",
"C&	c #D9D7F7",
"D&	c #DAD9F1",
"E&	c #D1DAF7",
"F&	c #D2D9F9",
"G&	c #D5D8F8",
"H&	c #D6DAF8",
"I&	c #D7D9F9",
"J&	c #D4D5EE",
"K&	c #33343C",
"L&	c #1D0002",
"M&	c #F50304",
"N&	c #EA080B",
"O&	c #630709",
"P&	c #220204",
"Q&	c #270001",
"R&	c #0B0001",
"S&	c #7E7E89",
"T&	c #D8D9F3",
"U&	c #D8D9F5",
"V&	c #DCD8F6",
"W&	c #D5D9FB",
"X&	c #D8DAF7",
"Y&	c #D7D7EF",
"Z&	c #020206",
"`&	c #C80A0E",
" *	c #EB0809",
".*	c #5E0607",
"+*	c #030203",
"@*	c #7D7D89",
"#*	c #D9DAF4",
"$*	c #D7D8F4",
"%*	c #D1D1EA",
"&*	c #D2D1ED",
"**	c #D2D2EA",
"=*	c #D1D1EC",
"-*	c #D2D2EC",
";*	c #D1D1EB",
">*	c #D3D2EC",
",*	c #D1D2ED",
"'*	c #D3D2ED",
")*	c #D3D3EC",
"!*	c #D1D0E5",
"~*	c #313138",
"{*	c #250101",
"]*	c #AC1319",
"^*	c #D80C14",
"/*	c #CE1117",
"(*	c #4F080A",
"_*	c #BABAD0",
":*	c #16171F",
"<*	c #16161C",
"[*	c #15151B",
"}*	c #3C3D45",
"|*	c #DBDBF3",
"1*	c #D1D0E9",
"2*	c #292831",
"3*	c #17161D",
"4*	c #1A1A1F",
"5*	c #050506",
"6*	c #050202",
"7*	c #2C0403",
"8*	c #300102",
"9*	c #110306",
"0*	c #D9DAF5",
"a*	c #B9B9CE",
"b*	c #35353D",
"c*	c #DBD9F3",
"d*	c #D1D1E9",
"e*	c #1F1F25",
"f*	c #060204",
"g*	c #BBBCD0",
"h*	c #28272E",
"i*	c #29292F",
"j*	c #28282D",
"k*	c #28292F",
"l*	c #222228",
"m*	c #020203",
"n*	c #DADAF4",
"o*	c #D1D0EA",
"p*	c #35353E",
"q*	c #28282E",
"r*	c #26252C",
"s*	c #07060B",
"t*	c #D7D6F4",
"u*	c #D4D3EC",
"v*	c #D5D3EC",
"w*	c #D5D4ED",
"x*	c #D3D3EB",
"y*	c #BCBCCB",
"z*	c #343439",
"A*	c #DBDBF4",
"B*	c #D8D7F5",
"C*	c #D4D4EB",
"D*	c #D5D5EA",
"E*	c #D2D4EB",
"F*	c #D2D4EC",
"G*	c #CFD0E6",
"H*	c #3A3B43",
"I*	c #7B7A88",
"J*	c #D7D7F8",
"K*	c #C4C3D5",
"L*	c #020208",
"M*	c #35363C",
"N*	c #D4D6EF",
"O*	c #3E3E46",
"P*	c #020201",
"Q*	c #DCDCF8",
"R*	c #D9D9F3",
"S*	c #D9DAF2",
"T*	c #C2C1D0",
"U*	c #030308",
"V*	c #35353C",
"W*	c #D9D8F1",
"X*	c #DADAF2",
"Y*	c #DAD9F0",
"Z*	c #D6D6E7",
"`*	c #3D3D44",
"                                                                                                    ",
"                                                                                                    ",
"                                                                                                    ",
"                                                                                                    ",
"                                                                                                    ",
"                                                                                                    ",
"                                                                                                    ",
"                                . + @ @ @ @ @ @ # $ %                                               ",
"                                & * = = = = = = - ; >                                               ",
"                  , ,       '   ) ! ~ ~ ~ ~ ~ ~ ~ { ]                                               ",
"                  , ^ / ( _ : < [ } | | | 1 1 1 1 2 3                                               ",
"                  ' 4 5 6 7 8 9 0 a 7 b 0 0 | 0 | c d                                               ",
"              e f g h i j k i l 7 m n o o p 0 0 0 q d       e , e                                   ",
"              r s t u v w x 0 | p y 0 n | p 0 | | z A B C D E F G                                 H ",
"            , I J K = 7 0 0 | 0 | | 0 0 0 0 0 0 | L M M N O P Q R                             S T ' ",
"              U V 7 k | 0 | 0 | 0 | 0 0 | 0 | 0 0 W X Y Z `  ...+.                            @.H   ",
"      #.$.%.&.*.=.| 1 | | | 0 | 0 | | | 0 | 0 | 0 p b p X -.9 ;./ >.,.'.).'.!.~.                H H ",
"      {.].^.~ K /.| | i 9 9 k 6 6 | =.7 =.p p p (.p _.p :.<.[.7 }.|.1.2.3.4.5.'             H H H H ",
"      ' 6.a | | 0 | k 7.8.6 9.0.0.a.w w w b.c.d.V e.f.O <.g.- h.i.j.k.l.m.n.o.@.              H H H ",
"      ' p.q.r.0 0 | 7 s.t.u.v.w.x.y.z.A.B.z.C.D.E.F.G.H.I.J.K.L.M.N.O.P.Q.R.S.T.                H H ",
"      ' U.V.0 0 | 0 8 W.|.X.Y.Z.`.`. +.+ +++@+#+$+%+&+f *+=+-+;+>+,+'+)+!+~+{+]+                H H ",
"        ^+V.| | 0 | 0 a /+(+_+:+:+<+[+[+[+}+}+}+|+1+2+S 3+4+5+6+7+8+9+0+a+b+c+T                 H H ",
"      ' d+V.| 0 0 | (.e+f+g+_+:+:+:+:+:+:+:+:+:+:+h+2+S 3+4+i+j+k+S l+m+a+n+o+                  H H ",
"      ' p+V.| 0 | | (.q+r+s+_+:+:+:+:+:+:+:+:+:+:+t+2+S u+v+a+w+k+@.x+y+a+n+z+                  H H ",
"        A+V.| 0 0 0 p P r+B+C+D+E+F+:+<+<+:+:+:+:+t+2+S G+H+i+w+I+J+K+L+M+n+z+                    H ",
"      ' N+V.0 5 } } 8 y O+P+Q+R+S+T+U+}+}+F+V+V+W+X+Y+Z+`+ @.@+@@@#@$@%@&@*@=@T.                  H ",
"        -@}.0 k j ;@>@l k ,@'@)@!@~@{@:+:+:+:+:+:+]@^@/@(@_@:@<@[@}@|@1@2@3@4@                    H ",
"      ' 5@6@- 8 = = 7@8@9@0@j a@b@c@d@e@|+|+|+E+f@g@h@i@W+M+e@j@k@l@m@n@o@' S p@T                   ",
"      ' q@r@s@t@t@u@v@w@x@y@z@A@B@C@D@E@F@G@H@I@I@J@K@L@M@N@O@P@Q@R@S@T@U@V@W@X@Y@Z@`@              ",
"      @. #.#+#@#@#.###$#%#&#*#=#-#;#>#>#,#>#'#>#'#'#'#'#/+)#W.!#~#{#]#^#/#(#_#:#<#[#}#|#            ",
"      T e   1#2#3#4#5#6#7#8#i@9#0#a#b#b#b#m m m k.k.c#m m d#e#f#g#T.S h#i#j#k#l#m#n#o#]+e ' '       ",
"            p#q#r#s#t#u#v#w#x#y#z#A#B#C#C#C#C#>@>@D#>@C#E#F#[.g.G#H#I#J#K#L#M#N#O#P#Q#R#S#' ~.      ",
"        ' S 4@T#b = U#V#W#X#T+Y#Z#`# .l l 9 C#C# $= -..$M +$6@@$7@#$$$%$&$*$=$-$;$>$,$'$)$!$@.p@T `@",
"      8+#.  ~.~$P {$]$^$/$($_$:$<$[$8@}$}$|$1$1$1$X 2$k.9 3$O+k E#9@4$5$!$6$7$8$9$0$a$b$c$!$d$|#e$.#",
"      f$g$h$i$j$k$l$m$n$o$p$q$W#r$s$t$t$u$v$v$w$w$x$y$z$A$B$B$C$D$E$F$G$H$I$J$l#K$L$K$M$N$O$P$Q$' R$",
"      p@S$T$U$V$W$X$Y$Z$`$ %.%+%a+@%V##%$%%%%%%%#%&%*%=%-%;%>%>%,%>%'%V$)%!%~%{%8$-$]%^%/%(%_%:%<%{.",
"      8+[%}%-$8$8$K$-$|%1%2%3%4%5%6%|+V+:+:+:+:+<+7%8%9$9%{%0%0%8$a%b%c%d%-$e%]%]%]%]%e%-$f%g%h%g 4@",
"      <%i%j%k%l%m%n%o%p%q%r%s%t%u%v%5%:+:+:+:+:+w%x%y%z%A%B%B%B%C%D%E%F%G%H%I%-$]%]%]%0$J%K%L%M%R$U@",
"      U@N%O%P%Q%R%S%T%U%V%W%X%Y%Z%`%[+:+:+:+:+:+{@ &.&+&@&#&$&%&&&*&=&-&;&>&,&'&]%]%9$)&!&~&{&]&~.T ",
"      T ^&4#.#S /&(&_&X l 0 :&<&[&}&|&_@]@_@]@]@]@1&2&3&4&5&w 6&7&E#8&9&!$0&a&-$a%b&]%c&d&e&p@'     ",
"            , f&g&h&( Y l |  $-.i&j&k&l&m&m&m&m&m&n&o&|$p&=.N }.q&r&s&t&u&v&a&{%0%w&x&y&z&@.        ",
"              A&B&C&P W Y p p y D&E&F&F&F&F&F&F&F&G&! ,@H&0 I&J&K&H H ^&R$L&=$M&N&O&P&Q&R&J+]+      ",
"              S&T&l U&+$0 0 V&W&N m 6 6 p 6 X I&W =.` X&x 6 6 Y&+.' {.@.Z&*$`&e% *.*+*^&^&'         ",
"              @*#*1 0 7@Y $*%*&***=*-*;*>*=*,*U&Y | | 0 - '*)*!*~*e   `@#.{*]*^*/*(*e               ",
"              @*#*1 | (.0 _*:*<*[*[*[*[*[*<*}*|*9 | | 0 1*2*3*4*5*    T   6*Q%7*8*9*^&              ",
"              @*0*1 Y n W a*f               b*c*;@k | 0 d*e*          ' ' `@u&f*' U@e               ",
"              U 7 5 r.7 l g*h*i*j*j*k*l*, m*+.n*F#| 0 0 o*p*q*j*j*q*r*s*^&    1#f e$T               ",
"              ~$} ~ F#0 3$t*)*u*v*w*x*y*(&{.z*A*p 0 0 0 B*u*C*D*E*F*G*H*                            ",
"              I*7 P w x /.J*6 [.w 6 8 K*L*@.M*A*=.7 0 7 =.=.=.l O I&N*O*P*                          ",
"              ,.Q*=.l =.0 5 R*t.t.S*^.T*U*#.V*W*l l l 0 8 n*0@7@X*Y*Z*`*                            "};
