/* XPM */
static char * wall_xpm[] = {
"50 50 43 1",
" 	c #FF9500",
".	c #FF9400",
"+	c #FF9200",
"@	c #FF8F00",
"#	c #FF8E00",
"$	c #FF8C00",
"%	c #FF8300",
"&	c #FF7800",
"*	c #FF6F00",
"=	c #FF6C00",
"-	c #FF6B00",
";	c #FF6900",
">	c #FF7C00",
",	c #FF6000",
"'	c #FE4900",
")	c #D53B00",
"!	c #C23500",
"~	c #FF8500",
"{	c #FF6400",
"]	c #CF3900",
"^	c #771D00",
"/	c #501000",
"(	c #440D00",
"_	c #3D0A00",
":	c #FF9100",
"<	c #FF7B00",
"[	c #FF4E00",
"}	c #7F1F00",
"|	c #2C0600",
"1	c #160200",
"2	c #110100",
"3	c #140200",
"4	c #FF7500",
"5	c #E74100",
"6	c #5B1400",
"7	c #1B0200",
"8	c #050000",
"9	c #000000",
"0	c #FF7200",
"a	c #E03F00",
"b	c #551200",
"c	c #190200",
"d	c #FF8D00",
"                                                  ",
"                                                  ",
"                                                  ",
"        ..................................        ",
"      .+@#$$$$$$$$$$$$$$$$$$$$$$$$$$$$$$#@+.      ",
"     .#%&*=---;------------------------=*&%#.     ",
"    .@>,')!!!!!!!!!!!!!!!!!!!!!!!!!!!!!!)',>@.    ",
"    +~{]^/(((((___(((((__((((((___((((((/^]{~+    ",
"    :<[}|12222222222232222222222222222221|}[<:    ",
"   .@4567899999999999999999999999999999987654@.   ",
"   .@0abc99999999999999999999999999999999cba0@.   ",
"   .@0abc99999999999999999999999999999999cba0#.   ",
"   .@0abc99999999999999999999999999999999cba0#.   ",
"   .@0abc99999999999999999999999999999999cba0#.   ",
"   .@0abc99999999999999999999999999999999cba0#.   ",
"   .@0abc99999999999999999999999999999999cba0#.   ",
"   .@0abc99999999999999999999999999999999cba0#.   ",
"   .@0abc99999999999999999999999999999999cba0#.   ",
"   .@0abc99999999999999999999999999999999cba0#.   ",
"   .@0abc99999999999999999999999999999999cba0#.   ",
"   .@0abc99999999999999999999999999999999cba0#.   ",
"   .@0abc99999999999999999999999999999999cba0#.   ",
"   .@0abc99999999999999999999999999999999cba0#.   ",
"   .@0abc99999999999999999999999999999999cba0#.   ",
"   .@0abc99999999999999999999999999999999cba0#.   ",
"   .@0abc99999999999999999999999999999999cba0#.   ",
"   .@0abc99999999999999999999999999999999cba0#.   ",
"   .#0abc99999999999999999999999999999999cba0#.   ",
"   .#0abc99999999999999999999999999999999cba0#.   ",
"   .#0abc99999999999999999999999999999999cba0#.   ",
"   .#0abc99999999999999999999999999999999cba0#.   ",
"   .@0abc99999999999999999999999999999999cba0#.   ",
"   .@0abc99999999999999999999999999999999cba0#.   ",
"   .#0abc99999999999999999999999999999999cba0#.   ",
"   .@0abc99999999999999999999999999999999cba0#.   ",
"   .#0abc99999999999999999999999999999999cba0#.   ",
"   .#0abc99999999999999999999999999999999cba0#.   ",
"   .#0abc99999999999999999999999999999999cba0#.   ",
"   .@0abc99999999999999999999999999999999cba0#.   ",
"   .@0abc99999999999999999999999999999999cba0@.   ",
"   .@4567899999999999999999999999999999987654@.   ",
"    :<[}|12222222222222222222222222222221|}[<:    ",
"    +~{]^/(((_____________((_________(((/^]{~+    ",
"    .@>,')!!!!!!!!!!!!!!!!!!!!!!!!!!!!!!)',>@.    ",
"     .#%&*=---;;;;-----;;-----;;;------=*&%#.     ",
"      .+@d$$$$$$$$$$$$$$$$$$$$$$$$$$$$$$d@+.      ",
"        ..................................        ",
"                                                  ",
"                                                  ",
"                                                  "};
