/* XPM */
static char * wall_xpm[] = {
"50 50 168 2",
"  	c #000000",
". 	c #010101",
"+ 	c #020202",
"@ 	c #030303",
"# 	c #040404",
"$ 	c #050505",
"% 	c #060606",
"& 	c #070707",
"* 	c #080808",
"= 	c #090909",
"- 	c #0A0A0A",
"; 	c #0B0B0B",
"> 	c #0C0C0C",
", 	c #0D0D0D",
"' 	c #0E0E0E",
") 	c #0F0F0F",
"! 	c #101010",
"~ 	c #111111",
"{ 	c #121212",
"] 	c #131313",
"^ 	c #141414",
"/ 	c #151515",
"( 	c #161616",
"_ 	c #171717",
": 	c #181818",
"< 	c #191919",
"[ 	c #1A1A1A",
"} 	c #1D1D1D",
"| 	c #1E1E1E",
"1 	c #1F1F1F",
"2 	c #202020",
"3 	c #222222",
"4 	c #232323",
"5 	c #242424",
"6 	c #252525",
"7 	c #262626",
"8 	c #272727",
"9 	c #282828",
"0 	c #292929",
"a 	c #2A2A2A",
"b 	c #2B2B2B",
"c 	c #2C2C2C",
"d 	c #2D2D2D",
"e 	c #2E2E2E",
"f 	c #2F2F2F",
"g 	c #333333",
"h 	c #343434",
"i 	c #373737",
"j 	c #383838",
"k 	c #393939",
"l 	c #3B3B3B",
"m 	c #3D3D3D",
"n 	c #3E3E3E",
"o 	c #3F3F3F",
"p 	c #404040",
"q 	c #414141",
"r 	c #424242",
"s 	c #444444",
"t 	c #454545",
"u 	c #484848",
"v 	c #4A4A4A",
"w 	c #4B4B4B",
"x 	c #4C4C4C",
"y 	c #4D4D4D",
"z 	c #4E4E4E",
"A 	c #505050",
"B 	c #525252",
"C 	c #575757",
"D 	c #585858",
"E 	c #5A5A5A",
"F 	c #5B5B5B",
"G 	c #5C5C5C",
"H 	c #5E5E5E",
"I 	c #606060",
"J 	c #616161",
"K 	c #626262",
"L 	c #636363",
"M 	c #686868",
"N 	c #6B6B6B",
"O 	c #6C6C6C",
"P 	c #6E6E6E",
"Q 	c #6F6F6F",
"R 	c #707070",
"S 	c #717171",
"T 	c #727272",
"U 	c #757575",
"V 	c #7D7D7D",
"W 	c #7E7E7E",
"X 	c #818181",
"Y 	c #838383",
"Z 	c #848484",
"` 	c #858585",
" .	c #868686",
"..	c #878787",
"+.	c #8A8A8A",
"@.	c #8B8B8B",
"#.	c #8D8D8D",
"$.	c #8E8E8E",
"%.	c #929292",
"&.	c #949494",
"*.	c #969696",
"=.	c #979797",
"-.	c #989898",
";.	c #999999",
">.	c #9E9E9E",
",.	c #A1A1A1",
"'.	c #A2A2A2",
").	c #A5A5A5",
"!.	c #A6A6A6",
"~.	c #A8A8A8",
"{.	c #A9A9A9",
"].	c #AAAAAA",
"^.	c #ABABAB",
"/.	c #AEAEAE",
"(.	c #B1B1B1",
"_.	c #B3B3B3",
":.	c #B5B5B5",
"<.	c #B7B7B7",
"[.	c #B8B8B8",
"}.	c #B9B9B9",
"|.	c #BABABA",
"1.	c #BBBBBB",
"2.	c #BCBCBC",
"3.	c #C0C0C0",
"4.	c #C1C1C1",
"5.	c #C2C2C2",
"6.	c #C6C6C6",
"7.	c #C8C8C8",
"8.	c #C9C9C9",
"9.	c #CACACA",
"0.	c #CDCDCD",
"a.	c #CFCFCF",
"b.	c #D0D0D0",
"c.	c #D2D2D2",
"d.	c #D4D4D4",
"e.	c #D5D5D5",
"f.	c #D6D6D6",
"g.	c #D8D8D8",
"h.	c #DADADA",
"i.	c #DBDBDB",
"j.	c #DDDDDD",
"k.	c #DEDEDE",
"l.	c #DFDFDF",
"m.	c #E0E0E0",
"n.	c #E1E1E1",
"o.	c #E4E4E4",
"p.	c #E6E6E6",
"q.	c #E7E7E7",
"r.	c #E8E8E8",
"s.	c #E9E9E9",
"t.	c #EBEBEB",
"u.	c #EEEEEE",
"v.	c #EFEFEF",
"w.	c #F0F0F0",
"x.	c #F1F1F1",
"y.	c #F2F2F2",
"z.	c #F3F3F3",
"A.	c #F4F4F4",
"B.	c #F5F5F5",
"C.	c #F7F7F7",
"D.	c #F8F8F8",
"E.	c #F9F9F9",
"F.	c #FAFAFA",
"G.	c #FBFBFB",
"H.	c #FCFCFC",
"I.	c #FDFDFD",
"J.	c #FEFEFE",
"K.	c #FFFFFF",
"K.K.K.K.K.K.K.K.K.K.K.K.K.K.K.K.K.K.K.K.K.K.K.K.K.K.K.K.K.K.K.K.K.K.K.K.K.K.K.K.K.K.K.K.K.K.K.K.K.K.",
"K.K.K.K.K.K.K.K.K.K.K.K.K.K.K.K.K.K.K.K.K.K.K.K.K.K.K.K.K.K.K.K.K.K.K.K.K.K.K.K.K.K.K.K.K.K.K.K.K.K.",
"K.K.K.K.K.K.K.K.K.K.K.K.K.K.K.K.K.K.K.K.K.K.K.K.K.K.K.K.K.K.K.K.K.K.K.K.K.K.K.K.K.K.K.K.K.K.K.K.K.K.",
"K.K.K.K.K.K.K.K.J.J.J.J.J.J.J.J.J.J.J.J.J.J.J.J.J.J.J.J.J.J.J.J.J.J.J.J.J.J.J.J.J.J.K.K.K.K.K.K.K.K.",
"K.K.K.K.K.K.J.G.B.z.x.w.w.w.w.w.w.w.w.w.w.w.w.w.w.w.w.w.w.w.w.w.w.w.w.w.w.w.w.x.z.B.G.J.K.K.K.K.K.K.",
"K.K.K.K.K.I.A.n.b.4.1.|.|.|.<.|.|.|.|.|.|.|.|.|.|.|.|.|.|.|.|.|.|.|.|.|.|.|.|.1.4.b.n.A.I.K.K.K.K.K.",
"K.K.K.K.J.B.f.~.X N J J J J J J J J J J J J J J J J J J J J J J J J J J J J J J N X ~.f.B.J.K.K.K.K.",
"K.K.K.K.G.o./.M k 5 | | | | | [ [ [ | | | | | [ [ | | | | | | [ [ [ | | | | | | 5 k M /.o.G.K.K.K.K.",
"K.K.K.K.D.d.+.m ~ % # # # # # # # # # # # $ # # # # # # # # # # # # # # # # # # % ~ m +.d.D.K.K.K.K.",
"K.K.K.J.B.9.U a * .                                                             . * a U 9.B.J.K.K.K.",
"K.K.K.J.B.6.S 8 &                                                                 & 8 S 6.B.J.K.K.K.",
"K.K.K.J.B.6.S 8 &                                                                 & 8 S 6.A.J.K.K.K.",
"K.K.K.J.B.6.S 8 &                                                                 & 8 S 6.A.J.K.K.K.",
"K.K.K.J.B.6.S 8 &                                                                 & 8 S 6.A.J.K.K.K.",
"K.K.K.J.B.6.S 8 &                                                                 & 8 S 6.A.J.K.K.K.",
"K.K.K.J.B.6.S 8 &                                                                 & 8 S 6.A.J.K.K.K.",
"K.K.K.J.B.6.S 8 &                                                                 & 8 S 6.A.J.K.K.K.",
"K.K.K.J.B.6.S 8 &                                                                 & 8 S 6.A.J.K.K.K.",
"K.K.K.J.B.6.S 8 &                                                                 & 8 S 6.A.J.K.K.K.",
"K.K.K.J.B.6.S 8 &                                                                 & 8 S 6.A.J.K.K.K.",
"K.K.K.J.B.6.S 8 &                                                                 & 8 S 6.A.J.K.K.K.",
"K.K.K.J.B.6.S 8 &                                                                 & 8 S 6.A.J.K.K.K.",
"K.K.K.J.B.6.S 8 &                                                                 & 8 S 6.A.J.K.K.K.",
"K.K.K.J.B.6.S 8 &                                                                 & 8 S 6.A.J.K.K.K.",
"K.K.K.J.B.6.S 8 &                                                                 & 8 S 6.A.J.K.K.K.",
"K.K.K.J.B.6.S 8 &                                                                 & 8 S 6.A.J.K.K.K.",
"K.K.K.J.B.6.S 8 &                                                                 & 8 S 6.A.J.K.K.K.",
"K.K.K.J.A.6.S 8 &                                                                 & 8 S 6.A.J.K.K.K.",
"K.K.K.J.A.6.S 8 &                                                                 & 8 S 6.A.J.K.K.K.",
"K.K.K.J.A.6.S 8 &                                                                 & 8 S 6.A.J.K.K.K.",
"K.K.K.J.A.6.S 8 &                                                                 & 8 S 6.A.J.K.K.K.",
"K.K.K.J.B.6.S 8 &                                                                 & 8 S 6.A.J.K.K.K.",
"K.K.K.J.B.6.S 8 &                                                                 & 8 S 6.A.J.K.K.K.",
"K.K.K.J.A.6.S 8 &                                                                 & 8 S 6.A.J.K.K.K.",
"K.K.K.J.B.6.S 8 &                                                                 & 8 S 6.A.J.K.K.K.",
"K.K.K.J.A.6.S 8 &                                                                 & 8 S 6.A.J.K.K.K.",
"K.K.K.J.A.6.S 8 &                                                                 & 8 S 6.A.J.K.K.K.",
"K.K.K.J.A.6.S 8 &                                                                 & 8 S 6.A.J.K.K.K.",
"K.K.K.J.B.6.S 8 &                                                                 & 8 S 6.A.J.K.K.K.",
"K.K.K.J.B.6.S 8 &                                                                 & 8 S 6.B.J.K.K.K.",
"K.K.K.J.B.9.U a * .                                                             . * a U 9.B.J.K.K.K.",
"K.K.K.K.D.d.+.m ~ % # # # # # # # # # # # # # # # # # # # # # # # # # # # # # # % ~ m +.d.D.K.K.K.K.",
"K.K.K.K.G.o./.M k 5 | | | [ [ [ [ [ [ [ [ [ [ [ [ [ | | [ [ [ [ [ [ [ [ [ | | | 5 k M /.o.G.K.K.K.K.",
"K.K.K.K.J.B.f.~.X N J J J J J J J J J J J J J J J J J J J J J J J J J J J J J J N X ~.f.B.J.K.K.K.K.",
"K.K.K.K.K.I.A.n.b.4.1.|.|.|.<.<.<.<.|.|.|.|.|.<.<.|.|.|.|.|.<.<.<.|.|.|.|.|.|.1.4.b.n.A.I.K.K.K.K.K.",
"K.K.K.K.K.K.J.G.B.y.x.w.w.w.w.w.w.w.w.w.w.w.w.w.w.w.w.w.w.w.w.w.w.w.w.w.w.w.w.x.y.B.G.J.K.K.K.K.K.K.",
"K.K.K.K.K.K.K.K.J.J.J.J.J.J.J.J.J.J.J.J.J.J.J.J.J.J.J.J.J.J.J.J.J.J.J.J.J.J.J.J.J.J.K.K.K.K.K.K.K.K.",
"K.K.K.K.K.K.K.K.K.K.K.K.K.K.K.K.K.K.K.K.K.K.K.K.K.K.K.K.K.K.K.K.K.K.K.K.K.K.K.K.K.K.K.K.K.K.K.K.K.K.",
"K.K.K.K.K.K.K.K.K.K.K.K.K.K.K.K.K.K.K.K.K.K.K.K.K.K.K.K.K.K.K.K.K.K.K.K.K.K.K.K.K.K.K.K.K.K.K.K.K.K.",
"K.K.K.K.K.K.K.K.K.K.K.K.K.K.K.K.K.K.K.K.K.K.K.K.K.K.K.K.K.K.K.K.K.K.K.K.K.K.K.K.K.K.K.K.K.K.K.K.K.K."};
